<svg width="150" height="84" viewBox="0 0 150 84" fill="none" xmlns="http://www.w3.org/2000/svg">
    <path fill-rule="evenodd" clip-rule="evenodd" d="M55.628 12.342V1.027H61.187L61.088 2.158H57.054V6.34H60.777V7.47H57.054V12.34H55.628V12.342ZM67.598 7.127C67.598 7.466 67.588 7.758 67.566 8.004C67.547 8.2203 67.525 8.43632 67.5 8.652H63.483C63.526 9.582 63.726 10.265 64.081 10.702C64.436 11.139 64.948 11.358 65.614 11.358C65.844 11.358 66.052 11.331 66.238 11.276C66.629 11.1663 66.9849 10.9572 67.271 10.669L67.763 11.604C67.708 11.659 67.626 11.738 67.517 11.842C67.407 11.945 67.26 12.049 67.074 12.153C66.8556 12.2695 66.6244 12.3601 66.385 12.423C66.0694 12.5051 65.7441 12.5441 65.418 12.539C64.926 12.539 64.48 12.457 64.081 12.293C63.6825 12.1295 63.3325 11.8668 63.064 11.53C62.786 11.186 62.57 10.748 62.417 10.218C62.264 9.688 62.187 9.051 62.187 8.308C62.187 7.608 62.267 7.004 62.425 6.496C62.583 5.987 62.799 5.569 63.073 5.241C63.346 4.913 63.663 4.67 64.023 4.511C64.385 4.353 64.773 4.274 65.188 4.274C65.942 4.274 66.533 4.511 66.959 4.987C67.385 5.462 67.599 6.176 67.599 7.127H67.598ZM65.106 5.356C64.636 5.356 64.259 5.553 63.975 5.946C63.69 6.34 63.526 6.908 63.483 7.652H66.353C66.363 7.597 66.372 7.518 66.377 7.414C66.3826 7.30209 66.3852 7.19005 66.385 7.078C66.385 6.531 66.275 6.108 66.057 5.807C65.838 5.507 65.522 5.356 65.107 5.356H65.106ZM69.01 8.52C69.01 7.722 69.114 7.055 69.322 6.52C69.529 5.984 69.797 5.552 70.125 5.224C70.453 4.896 70.825 4.664 71.24 4.527C71.6417 4.39263 72.0624 4.32342 72.486 4.322C72.738 4.322 72.956 4.341 73.142 4.379C73.328 4.417 73.482 4.464 73.602 4.519V0.748L74.929 0.6V12.342H73.715V11.505H73.683C73.5496 11.7473 73.3646 11.9572 73.141 12.12C72.9655 12.2467 72.772 12.3465 72.567 12.416C72.337 12.498 72.07 12.539 71.764 12.539C71.392 12.539 71.04 12.465 70.706 12.317C70.3594 12.1589 70.0579 11.9165 69.829 11.612C69.577 11.289 69.378 10.874 69.23 10.366C69.083 9.857 69.009 9.242 69.009 8.521L69.01 8.52ZM72.126 11.357C72.3664 11.3618 72.6052 11.3161 72.8269 11.2229C73.0485 11.1298 73.2482 10.9911 73.413 10.816C73.495 10.728 73.558 10.652 73.602 10.586V5.733C73.4705 5.6512 73.3299 5.58508 73.183 5.536C72.9895 5.47629 72.7875 5.44859 72.585 5.454C72.279 5.454 71.992 5.506 71.724 5.61C71.456 5.714 71.224 5.886 71.027 6.127C70.83 6.367 70.674 6.679 70.56 7.061C70.445 7.444 70.387 7.914 70.387 8.471C70.387 9.018 70.434 9.475 70.527 9.841C70.62 10.207 70.748 10.502 70.912 10.726C71.076 10.951 71.262 11.112 71.47 11.21C71.677 11.309 71.896 11.358 72.126 11.358V11.357ZM82.014 7.126C82.014 7.465 82.004 7.757 81.981 8.003C81.9624 8.21929 81.9407 8.43531 81.916 8.651H77.898C77.942 9.581 78.141 10.264 78.497 10.701C78.852 11.138 79.363 11.357 80.03 11.357C80.26 11.357 80.467 11.33 80.653 11.275C81.044 11.1653 81.3999 10.9562 81.686 10.668L82.178 11.603C82.123 11.658 82.041 11.737 81.932 11.841C81.822 11.944 81.675 12.048 81.489 12.152C81.271 12.2685 81.0401 12.3591 80.801 12.422C80.4851 12.5042 80.1594 12.5432 79.833 12.538C79.341 12.538 78.896 12.456 78.497 12.292C78.0985 12.1285 77.7485 11.8658 77.48 11.529C77.201 11.185 76.985 10.747 76.832 10.217C76.679 9.687 76.602 9.05 76.602 8.307C76.602 7.607 76.682 7.003 76.84 6.495C76.999 5.986 77.215 5.568 77.488 5.24C77.761 4.912 78.078 4.669 78.439 4.51C78.8 4.352 79.188 4.273 79.604 4.273C80.358 4.273 80.948 4.51 81.374 4.986C81.801 5.461 82.014 6.175 82.014 7.126ZM79.522 5.355C79.052 5.355 78.674 5.552 78.39 5.945C78.106 6.339 77.942 6.907 77.898 7.651H80.768C80.778 7.596 80.787 7.517 80.793 7.413C80.7986 7.30109 80.8012 7.18905 80.801 7.077C80.801 6.53 80.691 6.107 80.473 5.806C80.254 5.506 79.937 5.355 79.522 5.355ZM87.245 5.634C87.1776 5.59819 87.106 5.57066 87.032 5.552C86.8874 5.51468 86.7383 5.49785 86.589 5.502C86.174 5.502 85.849 5.615 85.614 5.839C85.394 6.04116 85.223 6.29082 85.114 6.569V12.341H83.785V4.47H84.999V5.536H85.032C85.086 5.383 85.157 5.233 85.245 5.086C85.332 4.938 85.441 4.806 85.573 4.692C85.703 4.577 85.86 4.487 86.04 4.422C86.2486 4.35137 86.4678 4.31753 86.688 4.322C86.874 4.322 87.024 4.339 87.138 4.372C87.254 4.405 87.344 4.432 87.409 4.454L87.245 5.634ZM88.016 10.34C88.016 9.88 88.104 9.498 88.278 9.192C88.453 8.886 88.688 8.637 88.984 8.446C89.3023 8.24548 89.6554 8.10641 90.025 8.036C90.4431 7.95215 90.8686 7.91094 91.295 7.913H91.705V7.16C91.705 6.493 91.588 6.034 91.353 5.782C91.118 5.531 90.787 5.405 90.361 5.405C89.968 5.405 89.64 5.49 89.377 5.659C89.115 5.829 88.907 5.979 88.754 6.11L88.196 5.225C88.284 5.137 88.396 5.039 88.533 4.93C88.669 4.82 88.836 4.716 89.033 4.618C89.23 4.52 89.453 4.438 89.705 4.372C89.957 4.306 90.241 4.274 90.558 4.274C91.367 4.274 91.979 4.498 92.395 4.946C92.81 5.394 93.018 6.116 93.018 7.111V10.701C93.018 11.041 93.028 11.371 93.05 11.694C93.072 12.017 93.094 12.232 93.116 12.342H91.853L91.804 11.472H91.771C91.728 11.571 91.662 11.683 91.575 11.809C91.487 11.935 91.378 12.049 91.247 12.153C91.1017 12.2647 90.9415 12.3556 90.771 12.423C90.562 12.5041 90.3391 12.5435 90.115 12.539C89.82 12.539 89.544 12.484 89.287 12.375C89.0325 12.2676 88.8025 12.1097 88.6109 11.9108C88.4192 11.712 88.2699 11.4763 88.172 11.218C88.0658 10.9379 88.0129 10.6405 88.016 10.341V10.34ZM90.394 11.406C90.58 11.406 90.744 11.379 90.886 11.324C91.028 11.269 91.151 11.204 91.255 11.127C91.359 11.051 91.446 10.966 91.517 10.873C91.588 10.78 91.651 10.701 91.706 10.635V8.898L91.279 8.914C90.645 8.936 90.164 9.046 89.836 9.242C89.508 9.439 89.344 9.756 89.344 10.194C89.344 10.598 89.437 10.901 89.624 11.104C89.809 11.306 90.066 11.407 90.394 11.407V11.406ZM96.33 10.504C96.33 10.832 96.377 11.062 96.47 11.193C96.563 11.324 96.724 11.39 96.953 11.39C97.073 11.39 97.175 11.379 97.257 11.357C97.339 11.335 97.402 11.313 97.445 11.291L97.56 12.275C97.4431 12.3268 97.3229 12.3706 97.2 12.406C96.9699 12.4676 96.7321 12.4953 96.494 12.488C96.046 12.488 95.685 12.352 95.412 12.078C95.139 11.805 95.002 11.318 95.002 10.618V0.749L96.329 0.6V10.505L96.33 10.504ZM111.942 1.026V12.341H110.564V6.963V5.963C110.564 5.635 110.567 5.329 110.573 5.044C110.578 4.76 110.586 4.509 110.597 4.29C110.608 4.071 110.619 3.902 110.63 3.782H110.58C110.482 4.19272 110.371 4.59996 110.245 5.003C110.075 5.566 109.881 6.17 109.662 6.815L107.792 12.342H106.662L104.792 6.815C104.588 6.2144 104.394 5.61031 104.21 5.003C104.04 4.44 103.928 4.033 103.874 3.782H103.824C103.854 4.20479 103.873 4.62825 103.881 5.052C103.887 5.332 103.89 5.635 103.89 5.962V12.343H102.513V1.027H104.103L106.776 8.832C106.896 9.193 107.003 9.546 107.096 9.89C107.189 10.234 107.246 10.532 107.268 10.784H107.301C107.312 10.532 107.364 10.237 107.457 9.898C107.55 9.559 107.657 9.21 107.777 8.848L110.45 1.027H111.942V1.026ZM115.582 12.341H114.254V4.47H115.582V12.342V12.341ZM114.926 2.567C114.653 2.567 114.434 2.48 114.27 2.305C114.106 2.13 114.024 1.9 114.024 1.616C114.024 1.343 114.106 1.119 114.27 0.944C114.434 0.769 114.653 0.681 114.926 0.681C115.189 0.681 115.402 0.769 115.566 0.944C115.73 1.119 115.812 1.343 115.812 1.616C115.812 1.9 115.73 2.13 115.566 2.305C115.484 2.39175 115.385 2.46 115.274 2.50519C115.164 2.55037 115.045 2.57145 114.926 2.567ZM121.912 12.341V7.275C121.912 6.608 121.8 6.129 121.576 5.84C121.352 5.55 121.01 5.405 120.551 5.405C120.158 5.405 119.83 5.503 119.567 5.7C119.305 5.897 119.097 6.088 118.944 6.274V12.342H117.616V4.47H118.829V5.356H118.862C119.024 5.09483 119.243 4.87339 119.502 4.708C119.697 4.58336 119.906 4.48169 120.125 4.405C120.365 4.317 120.639 4.274 120.945 4.274C121.295 4.274 121.612 4.326 121.895 4.429C122.18 4.533 122.421 4.7 122.617 4.929C122.814 5.159 122.967 5.457 123.077 5.823C123.186 6.189 123.241 6.641 123.241 7.176V12.342H121.912V12.341ZM126.553 12.341H125.225V4.47H126.553V12.342V12.341ZM125.897 2.567C125.624 2.567 125.405 2.48 125.241 2.305C125.077 2.13 124.995 1.9 124.995 1.616C124.995 1.343 125.077 1.119 125.241 0.944C125.405 0.769 125.624 0.681 125.897 0.681C126.159 0.681 126.373 0.769 126.537 0.944C126.701 1.119 126.783 1.343 126.783 1.616C126.783 1.9 126.701 2.13 126.537 2.305C126.455 2.39175 126.356 2.46 126.245 2.50519C126.135 2.55037 126.016 2.57145 125.897 2.567ZM131.981 6.06C131.835 5.91148 131.676 5.77689 131.505 5.658C131.275 5.488 130.975 5.404 130.604 5.404C130.254 5.404 129.986 5.486 129.8 5.65C129.713 5.72145 129.642 5.81147 129.594 5.91353C129.546 6.01558 129.521 6.12711 129.521 6.24C129.521 6.536 129.606 6.779 129.775 6.97C129.945 7.162 130.205 7.366 130.555 7.585L131.046 7.88C131.582 8.197 132.003 8.539 132.309 8.905C132.615 9.271 132.769 9.745 132.769 10.324C132.769 10.947 132.552 11.472 132.12 11.898C131.689 12.324 131.068 12.538 130.26 12.538C129.942 12.538 129.663 12.505 129.423 12.439C129.206 12.3819 128.995 12.3049 128.792 12.209C128.63 12.1335 128.478 12.0374 128.341 11.923C128.221 11.819 128.121 11.723 128.045 11.636L128.685 10.586C128.75 10.652 128.83 10.728 128.923 10.816C129.147 11.0224 129.413 11.1789 129.702 11.275C129.866 11.33 130.057 11.357 130.276 11.357C130.669 11.357 130.97 11.269 131.177 11.094C131.274 11.0183 131.353 10.9212 131.407 10.8103C131.461 10.6993 131.489 10.5774 131.489 10.454C131.492 10.2899 131.467 10.1266 131.415 9.971C131.366 9.83474 131.291 9.70938 131.194 9.602C131.086 9.48479 130.966 9.38043 130.834 9.291C130.671 9.17913 130.507 9.06978 130.341 8.963L129.849 8.651C129.357 8.334 128.972 8.001 128.693 7.651C128.414 7.301 128.275 6.853 128.275 6.306C128.275 6.011 128.332 5.74 128.447 5.494C128.561 5.2488 128.726 5.03066 128.931 4.854C129.139 4.674 129.381 4.532 129.661 4.428C129.947 4.32321 130.249 4.27071 130.554 4.273C130.819 4.26808 131.084 4.29835 131.341 4.363C131.696 4.45522 132.025 4.62918 132.301 4.871C132.405 4.964 132.489 5.043 132.555 5.109L131.981 6.06ZM137.688 5.552H135.966V9.914C135.966 10.471 136.037 10.851 136.179 11.054C136.321 11.256 136.562 11.357 136.901 11.357C137.097 11.357 137.267 11.33 137.409 11.275C137.518 11.2364 137.622 11.1868 137.721 11.127L137.901 12.193C137.777 12.274 137.645 12.3427 137.507 12.398C137.3 12.491 137.021 12.538 136.671 12.538C135.993 12.538 135.485 12.349 135.146 11.972C134.807 11.595 134.638 10.969 134.638 10.094V5.553H133.686V4.667L134.638 4.47L134.785 2.273H135.965V4.47H137.852L137.688 5.553V5.552ZM142.657 5.634C142.589 5.59811 142.517 5.57058 142.443 5.552C142.299 5.51477 142.15 5.49794 142.001 5.502C141.585 5.502 141.26 5.615 141.025 5.839C140.805 6.04116 140.634 6.29082 140.525 6.569V12.341H139.196V4.47H140.41V5.536H140.443C140.497 5.383 140.568 5.233 140.656 5.086C140.743 4.938 140.853 4.806 140.984 4.692C141.115 4.577 141.271 4.487 141.451 4.422C141.66 4.35137 141.879 4.31753 142.099 4.322C142.285 4.322 142.435 4.339 142.55 4.372C142.665 4.405 142.755 4.432 142.82 4.454L142.657 5.634ZM149.217 4.469L146.757 12.799C146.472 13.762 146.125 14.489 145.715 14.981C145.305 15.473 144.712 15.719 143.935 15.719C143.772 15.719 143.635 15.699 143.525 15.662C143.447 15.6362 143.371 15.6062 143.296 15.572V14.423C143.351 14.445 143.422 14.47 143.509 14.497C143.597 14.525 143.712 14.538 143.854 14.538C144.324 14.538 144.682 14.391 144.928 14.095C145.174 13.8 145.384 13.347 145.559 12.735L145.674 12.325L143.132 4.469H144.559L145.789 8.831C145.909 9.28 146.019 9.698 146.117 10.086C146.215 10.474 146.275 10.821 146.297 11.127H146.33C146.352 10.821 146.404 10.477 146.486 10.094C146.568 9.711 146.669 9.296 146.789 8.848L147.904 4.469H149.216H149.217ZM54.987 24.943C54.987 24.221 55.072 23.598 55.241 23.073C55.411 22.548 55.641 22.119 55.931 21.786C56.22 21.452 56.553 21.206 56.931 21.048C57.3126 20.8886 57.7224 20.8076 58.136 20.81C58.573 20.81 58.977 20.89 59.349 21.048C59.721 21.206 60.043 21.452 60.317 21.786C60.59 22.119 60.806 22.548 60.964 23.073C61.123 23.598 61.202 24.221 61.202 24.943C61.202 25.675 61.12 26.303 60.956 26.828C60.792 27.353 60.566 27.782 60.276 28.116C59.986 28.449 59.65 28.692 59.267 28.846C58.884 28.999 58.48 29.076 58.054 29.076C57.616 29.076 57.212 28.999 56.84 28.846C56.4616 28.6876 56.129 28.4366 55.873 28.116C55.599 27.782 55.383 27.356 55.225 26.836C55.066 26.317 54.987 25.686 54.987 24.943ZM59.825 24.943C59.825 23.893 59.672 23.13 59.365 22.655C59.059 22.179 58.633 21.942 58.086 21.942C57.54 21.942 57.116 22.179 56.816 22.655C56.515 23.13 56.365 23.893 56.365 24.943C56.365 25.993 56.518 26.746 56.824 27.206C57.13 27.665 57.556 27.894 58.103 27.894C58.649 27.894 59.073 27.664 59.373 27.206C59.674 26.746 59.825 25.992 59.825 24.943ZM66.089 22.089H64.482V28.879H63.154V22.089H62.202V21.204L63.154 21.024V19.449C63.154 19.023 63.214 18.656 63.334 18.35C63.454 18.044 63.613 17.793 63.81 17.596C64.0027 17.4019 64.2384 17.256 64.498 17.17C64.761 17.082 65.039 17.038 65.335 17.038C65.619 17.038 65.859 17.077 66.056 17.153C66.253 17.23 66.384 17.29 66.45 17.333L66.171 18.433C66.0827 18.3775 65.9893 18.3307 65.892 18.293C65.7505 18.24 65.6001 18.2149 65.449 18.219C65.132 18.219 64.892 18.318 64.728 18.514C64.564 18.711 64.482 19.072 64.482 19.597V21.007H66.253L66.089 22.089ZM76.322 18.695H72.288V22.598H75.994V23.729H72.288V27.698H76.732L76.65 28.878H70.861V17.563H76.421L76.321 18.695H76.322ZM77.88 25.057C77.88 24.259 77.984 23.592 78.191 23.057C78.399 22.521 78.667 22.089 78.995 21.761C79.323 21.433 79.695 21.201 80.11 21.064C80.5117 20.9296 80.9324 20.8604 81.356 20.859C81.608 20.859 81.826 20.879 82.012 20.917C82.198 20.955 82.351 21.001 82.472 21.057V17.284L83.8 17.137V28.878H82.586V28.042H82.553C82.4202 28.2841 82.2359 28.494 82.013 28.657C81.8371 28.7834 81.6433 28.8829 81.438 28.952C81.208 29.034 80.941 29.075 80.635 29.075C80.263 29.075 79.91 29.001 79.577 28.854C79.2303 28.6956 78.9288 28.4529 78.7 28.148C78.448 27.826 78.249 27.411 78.101 26.902C77.954 26.394 77.88 25.779 77.88 25.057ZM80.995 27.894C81.2354 27.8988 81.4742 27.8531 81.6959 27.7599C81.9175 27.6668 82.1172 27.5281 82.282 27.353C82.365 27.266 82.428 27.189 82.472 27.123V22.27C82.3405 22.1882 82.1999 22.1221 82.053 22.073C81.8595 22.0133 81.6575 21.9856 81.455 21.991C81.149 21.991 80.861 22.043 80.594 22.147C80.326 22.25 80.094 22.423 79.897 22.663C79.7 22.903 79.544 23.215 79.429 23.598C79.315 23.981 79.257 24.451 79.257 25.008C79.257 25.555 79.304 26.011 79.397 26.378C79.489 26.744 79.617 27.038 79.782 27.263C79.946 27.487 80.132 27.648 80.339 27.747C80.547 27.845 80.766 27.894 80.995 27.894ZM91.343 28.878H90.13V27.993H90.097C89.9353 28.2515 89.7201 28.4724 89.466 28.641C89.296 28.755 89.091 28.856 88.85 28.944C88.61 29.031 88.342 29.075 88.047 29.075C87.697 29.075 87.383 29.023 87.104 28.919C86.8273 28.8165 86.5817 28.6442 86.391 28.419C86.194 28.189 86.043 27.892 85.94 27.525C85.836 27.159 85.784 26.708 85.784 26.172V21.007H87.112V26.074C87.112 26.73 87.219 27.197 87.432 27.476C87.645 27.755 87.976 27.894 88.424 27.894C88.807 27.894 89.129 27.799 89.392 27.607C89.654 27.416 89.862 27.227 90.015 27.042V21.007H91.343V28.878ZM97.755 22.532C97.7039 22.4817 97.6519 22.4324 97.599 22.384C97.5158 22.3098 97.4254 22.2441 97.329 22.188C97.2047 22.1155 97.0725 22.0575 96.935 22.015C96.7648 21.9636 96.5877 21.939 96.41 21.942C96.126 21.942 95.86 21.994 95.615 22.097C95.369 22.201 95.155 22.368 94.975 22.597C94.795 22.827 94.653 23.125 94.549 23.491C94.445 23.858 94.393 24.303 94.393 24.828C94.393 25.408 94.44 25.894 94.533 26.288C94.626 26.681 94.753 26.995 94.918 27.23C95.082 27.465 95.281 27.635 95.517 27.738C95.752 27.842 96.011 27.894 96.295 27.894C96.7 27.894 97.009 27.824 97.222 27.681C97.435 27.539 97.585 27.424 97.672 27.337L98.214 28.255C98.1403 28.3398 98.0608 28.4193 97.976 28.493C97.8535 28.5985 97.7189 28.6891 97.575 28.763C97.3848 28.8604 97.1838 28.935 96.976 28.985C96.741 29.045 96.47 29.075 96.164 29.075C95.727 29.075 95.317 29.004 94.934 28.862C94.546 28.7161 94.2018 28.4734 93.934 28.157C93.65 27.829 93.426 27.402 93.262 26.877C93.098 26.353 93.016 25.702 93.016 24.927C93.016 24.172 93.114 23.532 93.311 23.007C93.508 22.483 93.765 22.059 94.081 21.737C94.399 21.414 94.751 21.179 95.139 21.031C95.5132 20.8865 95.9108 20.8119 96.312 20.811C96.607 20.811 96.867 20.837 97.091 20.892C97.315 20.947 97.506 21.015 97.665 21.097C97.823 21.179 97.955 21.267 98.058 21.359C98.162 21.452 98.247 21.532 98.312 21.597L97.755 22.532ZM99.247 26.878C99.247 26.418 99.335 26.036 99.51 25.73C99.684 25.424 99.92 25.175 100.215 24.984C100.533 24.7835 100.886 24.6444 101.256 24.574C101.674 24.4902 102.1 24.4489 102.526 24.451H102.936V23.696C102.936 23.029 102.819 22.57 102.584 22.319C102.349 22.067 102.019 21.942 101.592 21.942C101.199 21.942 100.871 22.026 100.608 22.196C100.346 22.366 100.138 22.516 99.985 22.646L99.428 21.761C99.515 21.674 99.628 21.575 99.764 21.466C99.9 21.356 100.067 21.253 100.264 21.154C100.739 20.9219 101.261 20.8041 101.789 20.81C102.598 20.81 103.21 21.034 103.626 21.482C104.041 21.931 104.249 22.652 104.249 23.647V27.238C104.249 27.578 104.259 27.908 104.282 28.23C104.304 28.553 104.325 28.769 104.347 28.878H103.084L103.035 28.009H103.002C102.959 28.108 102.893 28.219 102.806 28.345C102.718 28.471 102.609 28.585 102.478 28.69C102.333 28.8017 102.172 28.8926 102.002 28.96C101.793 29.0408 101.57 29.0799 101.346 29.075C101.051 29.075 100.775 29.02 100.518 28.911C100.264 28.8037 100.034 28.646 99.842 28.4473C99.6504 28.2486 99.501 28.0131 99.403 27.755C99.2969 27.4749 99.2439 27.1775 99.247 26.878ZM101.625 27.944C101.811 27.944 101.975 27.916 102.117 27.862C102.259 27.807 102.382 27.742 102.486 27.665C102.59 27.588 102.677 27.504 102.748 27.411C102.819 27.318 102.882 27.238 102.937 27.173V25.435L102.511 25.451C101.876 25.473 101.395 25.582 101.067 25.779C100.739 25.976 100.575 26.293 100.575 26.73C100.575 27.134 100.668 27.438 100.855 27.64C101.04 27.842 101.297 27.944 101.625 27.944ZM109.611 22.089H107.889V26.451C107.889 27.009 107.96 27.389 108.102 27.591C108.245 27.793 108.485 27.894 108.824 27.894C109.021 27.894 109.19 27.867 109.332 27.812C109.441 27.7737 109.545 27.7245 109.644 27.665L109.824 28.731C109.7 28.812 109.568 28.8807 109.431 28.936C109.223 29.029 108.944 29.076 108.594 29.076C107.917 29.076 107.408 28.886 107.069 28.509C106.731 28.132 106.561 27.506 106.561 26.632V22.089H105.61V21.204L106.561 21.007L106.709 18.809H107.889V21.007H109.775L109.611 22.089ZM112.448 28.879H111.12V21.007H112.448V28.878V28.879ZM111.792 19.105C111.519 19.105 111.3 19.017 111.136 18.842C110.972 18.667 110.89 18.438 110.89 18.154C110.89 17.88 110.972 17.656 111.136 17.481C111.3 17.306 111.519 17.219 111.792 17.219C112.055 17.219 112.268 17.306 112.432 17.481C112.596 17.656 112.678 17.881 112.678 18.154C112.678 18.438 112.596 18.667 112.432 18.842C112.35 18.9289 112.251 18.9974 112.14 19.0427C112.03 19.0881 111.911 19.1093 111.792 19.105ZM114.121 24.943C114.121 24.221 114.206 23.598 114.375 23.073C114.545 22.548 114.774 22.119 115.064 21.786C115.354 21.452 115.687 21.206 116.064 21.048C116.446 20.8886 116.855 20.8076 117.269 20.81C117.707 20.81 118.111 20.89 118.483 21.048C118.855 21.206 119.177 21.452 119.45 21.786C119.724 22.119 119.94 22.548 120.098 23.073C120.257 23.598 120.336 24.221 120.336 24.943C120.336 25.675 120.254 26.303 120.09 26.828C119.926 27.353 119.7 27.782 119.41 28.116C119.12 28.449 118.784 28.692 118.4 28.846C118.018 28.999 117.614 29.076 117.187 29.076C116.75 29.076 116.346 28.999 115.974 28.846C115.595 28.6878 115.262 28.4367 115.006 28.116C114.733 27.782 114.517 27.356 114.359 26.836C114.2 26.317 114.121 25.686 114.121 24.943ZM118.958 24.943C118.958 23.893 118.805 23.13 118.499 22.655C118.193 22.179 117.767 21.942 117.22 21.942C116.674 21.942 116.25 22.179 115.95 22.655C115.649 23.13 115.498 23.893 115.498 24.943C115.498 25.993 115.651 26.746 115.958 27.206C116.264 27.665 116.69 27.894 117.237 27.894C117.783 27.894 118.207 27.664 118.507 27.206C118.808 26.746 118.958 25.992 118.958 24.943ZM126.305 28.878V23.811C126.305 23.144 126.193 22.666 125.969 22.376C125.745 22.086 125.403 21.942 124.944 21.942C124.55 21.942 124.222 22.04 123.96 22.237C123.698 22.434 123.49 22.625 123.337 22.811V28.878H122.009V21.007H123.222V21.892H123.255C123.417 21.6308 123.636 21.4094 123.895 21.244C124.09 21.1194 124.299 21.0177 124.518 20.941C124.758 20.854 125.031 20.811 125.338 20.811C125.688 20.811 126.004 20.862 126.288 20.966C126.573 21.07 126.813 21.236 127.01 21.466C127.207 21.696 127.36 21.994 127.47 22.36C127.579 22.726 127.633 23.177 127.633 23.713V28.878H126.305ZM54.89 43.414C54.89 42.955 54.977 42.572 55.152 42.266C55.327 41.96 55.562 41.711 55.857 41.52C56.1756 41.3194 56.5291 41.1803 56.899 41.11C57.3171 41.0262 57.7426 40.9849 58.169 40.987H58.579V40.233C58.579 39.566 58.462 39.107 58.227 38.855C57.992 38.604 57.661 38.478 57.235 38.478C56.841 38.478 56.513 38.563 56.251 38.732C55.988 38.902 55.781 39.052 55.628 39.183L55.07 38.298C55.158 38.21 55.27 38.112 55.406 38.003C55.543 37.893 55.71 37.789 55.906 37.691C56.3805 37.4589 56.9028 37.3411 57.431 37.347C58.241 37.347 58.853 37.571 59.268 38.019C59.684 38.467 59.891 39.189 59.891 40.184V43.774C59.891 44.114 59.902 44.444 59.924 44.767C59.946 45.09 59.968 45.306 59.99 45.415H58.727L58.677 44.545H58.645C58.601 44.645 58.535 44.756 58.448 44.882C58.361 45.008 58.251 45.122 58.12 45.226C57.975 45.3376 57.8151 45.4285 57.645 45.496C57.436 45.5771 57.2132 45.6165 56.989 45.612C56.694 45.612 56.418 45.557 56.161 45.448C55.9065 45.3406 55.6765 45.1827 55.4849 44.9838C55.2932 44.785 55.1439 44.5493 55.046 44.291C54.9399 44.0109 54.8869 43.7135 54.89 43.414ZM57.267 44.48C57.453 44.48 57.617 44.453 57.759 44.398C57.902 44.343 58.025 44.278 58.129 44.201C58.232 44.125 58.319 44.041 58.391 43.947C58.461 43.854 58.525 43.775 58.579 43.709V41.971L58.153 41.987C57.519 42.009 57.038 42.119 56.71 42.315C56.382 42.512 56.218 42.829 56.218 43.267C56.218 43.671 56.311 43.974 56.497 44.177C56.683 44.379 56.94 44.48 57.267 44.48ZM66.188 45.415V40.348C66.188 39.681 66.076 39.202 65.852 38.913C65.628 38.623 65.286 38.478 64.827 38.478C64.434 38.478 64.106 38.577 63.843 38.773C63.581 38.97 63.373 39.161 63.22 39.347V45.415H61.892V37.543H63.105V38.429H63.138C63.3002 38.1678 63.5189 37.9464 63.778 37.781C63.9733 37.6564 64.1824 37.5547 64.401 37.478C64.641 37.39 64.915 37.347 65.221 37.347C65.571 37.347 65.888 37.399 66.172 37.502C66.456 37.606 66.697 37.773 66.894 38.002C67.09 38.232 67.244 38.53 67.353 38.896C67.462 39.263 67.517 39.714 67.517 40.249V45.415H66.188ZM69.14 41.594C69.14 40.796 69.244 40.129 69.452 39.594C69.659 39.058 69.927 38.626 70.255 38.298C70.583 37.97 70.955 37.738 71.37 37.601C71.7721 37.4665 72.1931 37.3973 72.617 37.396C72.868 37.396 73.087 37.415 73.273 37.453C73.459 37.491 73.611 37.538 73.732 37.593V33.82L75.06 33.672V45.414H73.847V44.577H73.814C73.6809 44.8192 73.4962 45.0291 73.273 45.192C73.0975 45.3187 72.904 45.4185 72.699 45.488C72.469 45.57 72.201 45.611 71.895 45.611C71.523 45.611 71.171 45.537 70.837 45.389C70.4904 45.2309 70.1889 44.9885 69.96 44.684C69.709 44.362 69.51 43.946 69.362 43.438C69.214 42.929 69.14 42.314 69.14 41.593V41.594ZM72.256 44.431C72.4964 44.4358 72.7352 44.3901 72.9569 44.297C73.1785 44.2038 73.3782 44.0651 73.543 43.89C73.625 43.802 73.688 43.726 73.732 43.66V38.806C73.6008 38.7243 73.4605 38.6582 73.314 38.609C73.1202 38.5492 72.9178 38.5215 72.715 38.527C72.409 38.527 72.122 38.579 71.855 38.683C71.586 38.787 71.354 38.959 71.157 39.2C70.96 39.44 70.805 39.752 70.69 40.134C70.575 40.517 70.518 40.987 70.518 41.544C70.518 42.091 70.564 42.548 70.658 42.914C70.75 43.28 70.878 43.575 71.042 43.799C71.206 44.024 71.392 44.185 71.6 44.283C71.808 44.382 72.026 44.431 72.256 44.431ZM86.014 45.415L83.669 40.774C83.4129 40.7955 83.156 40.8066 82.899 40.807H82.276V45.415H80.849V34.1H82.964C84.331 34.1 85.339 34.365 85.99 34.895C86.64 35.425 86.966 36.215 86.966 37.265C86.966 38.019 86.807 38.664 86.49 39.2C86.173 39.735 85.686 40.145 85.03 40.43L87.687 45.415H86.014ZM85.44 37.347C85.44 36.625 85.24 36.092 84.842 35.747C84.442 35.403 83.817 35.231 82.964 35.231H82.276V39.675H82.899C83.762 39.675 84.402 39.473 84.817 39.068C85.233 38.664 85.44 38.09 85.44 37.347ZM93.92 40.2C93.92 40.539 93.909 40.831 93.887 41.077C93.868 41.2933 93.846 41.5093 93.821 41.725H89.804C89.847 42.655 90.047 43.338 90.402 43.775C90.757 44.212 91.269 44.431 91.935 44.431C92.165 44.431 92.373 44.404 92.559 44.349C92.95 44.2393 93.3059 44.0302 93.592 43.742L94.084 44.677C94.029 44.732 93.947 44.811 93.838 44.915C93.728 45.018 93.581 45.122 93.395 45.226C93.1766 45.3425 92.9454 45.4331 92.706 45.496C92.3904 45.5781 92.0651 45.6171 91.739 45.612C91.247 45.612 90.801 45.53 90.402 45.366C90.0035 45.2025 89.6535 44.9398 89.385 44.603C89.107 44.259 88.891 43.821 88.738 43.291C88.585 42.761 88.508 42.124 88.508 41.381C88.508 40.681 88.588 40.077 88.746 39.569C88.904 39.06 89.12 38.642 89.394 38.314C89.667 37.986 89.984 37.743 90.344 37.584C90.705 37.426 91.094 37.347 91.509 37.347C92.263 37.347 92.854 37.584 93.28 38.06C93.706 38.535 93.92 39.249 93.92 40.2ZM91.427 38.429C90.957 38.429 90.58 38.626 90.295 39.019C90.011 39.413 89.847 39.981 89.804 40.725H92.674C92.684 40.67 92.692 40.591 92.698 40.487C92.7036 40.3751 92.7062 40.2631 92.706 40.151C92.706 39.604 92.596 39.181 92.378 38.88C92.159 38.58 91.842 38.429 91.427 38.429ZM99.085 39.134C98.9395 38.9855 98.7805 38.8509 98.61 38.732C98.38 38.562 98.08 38.478 97.708 38.478C97.358 38.478 97.09 38.56 96.904 38.724C96.8166 38.7954 96.7462 38.8855 96.698 38.9875C96.6497 39.0896 96.6248 39.2011 96.625 39.314C96.625 39.61 96.71 39.853 96.88 40.044C97.049 40.236 97.309 40.44 97.659 40.659L98.15 40.954C98.686 41.271 99.107 41.613 99.413 41.979C99.719 42.345 99.873 42.819 99.873 43.398C99.873 44.021 99.656 44.546 99.225 44.972C98.793 45.398 98.172 45.612 97.363 45.612C97.046 45.612 96.767 45.579 96.527 45.513C96.3101 45.4559 96.0988 45.3789 95.896 45.283C95.734 45.2075 95.5824 45.1114 95.445 44.997C95.325 44.893 95.226 44.797 95.15 44.71L95.79 43.66C95.855 43.726 95.934 43.802 96.027 43.89C96.2512 44.0964 96.5168 44.2529 96.806 44.349C96.97 44.404 97.161 44.431 97.38 44.431C97.773 44.431 98.074 44.343 98.282 44.168C98.3793 44.0922 98.4579 43.9951 98.5119 43.8841C98.5658 43.7732 98.5935 43.6514 98.593 43.528C98.5966 43.364 98.5719 43.2006 98.52 43.045C98.4708 42.9087 98.3954 42.7833 98.298 42.676C98.1904 42.5588 98.0696 42.4544 97.938 42.365C97.7754 42.2531 97.611 42.1438 97.445 42.037L96.953 41.725C96.461 41.408 96.076 41.075 95.797 40.725C95.519 40.375 95.379 39.927 95.379 39.38C95.379 39.085 95.437 38.814 95.551 38.568C95.6652 38.3228 95.8302 38.1047 96.035 37.928C96.243 37.748 96.486 37.606 96.765 37.502C97.0513 37.3971 97.3541 37.3446 97.659 37.347C97.9242 37.3421 98.1888 37.3723 98.446 37.437C98.8009 37.5294 99.1292 37.7033 99.405 37.945C99.509 38.038 99.594 38.117 99.659 38.183L99.085 39.134ZM106.481 40.2C106.481 40.539 106.47 40.831 106.448 41.077C106.429 41.2933 106.408 41.5093 106.383 41.725H102.365C102.409 42.655 102.608 43.338 102.964 43.775C103.319 44.212 103.83 44.431 104.497 44.431C104.727 44.431 104.934 44.404 105.12 44.349C105.511 44.2393 105.867 44.0302 106.153 43.742L106.645 44.677C106.59 44.732 106.508 44.811 106.399 44.915C106.289 45.018 106.142 45.122 105.956 45.226C105.738 45.3425 105.507 45.4331 105.268 45.496C104.952 45.5782 104.626 45.6172 104.3 45.612C103.808 45.612 103.363 45.53 102.964 45.366C102.566 45.2025 102.215 44.9398 101.947 44.603C101.668 44.259 101.452 43.821 101.299 43.291C101.146 42.761 101.069 42.124 101.069 41.381C101.069 40.681 101.149 40.077 101.307 39.569C101.466 39.06 101.682 38.642 101.955 38.314C102.228 37.986 102.545 37.743 102.906 37.584C103.266 37.426 103.655 37.347 104.07 37.347C104.825 37.347 105.415 37.584 105.841 38.06C106.268 38.535 106.481 39.249 106.481 40.2ZM103.988 38.429C103.518 38.429 103.141 38.626 102.857 39.019C102.573 39.413 102.409 39.981 102.365 40.725H105.235C105.245 40.67 105.254 40.591 105.259 40.487C105.265 40.3751 105.268 40.2631 105.268 40.151C105.268 39.604 105.158 39.181 104.94 38.88C104.72 38.58 104.404 38.429 103.988 38.429ZM107.793 43.414C107.793 42.955 107.88 42.572 108.055 42.266C108.23 41.96 108.465 41.711 108.76 41.52C109.079 41.3194 109.432 41.1803 109.802 41.11C110.22 41.0262 110.646 40.9849 111.072 40.987H111.482V40.233C111.482 39.566 111.365 39.107 111.13 38.855C110.895 38.604 110.564 38.478 110.138 38.478C109.744 38.478 109.416 38.563 109.154 38.732C108.892 38.902 108.684 39.052 108.531 39.183L107.973 38.298C108.061 38.21 108.173 38.112 108.31 38.003C108.446 37.893 108.613 37.789 108.81 37.691C109.285 37.4589 109.807 37.3411 110.335 37.347C111.144 37.347 111.755 37.571 112.171 38.019C112.587 38.467 112.795 39.189 112.795 40.184V43.774C112.795 44.114 112.805 44.444 112.827 44.767C112.849 45.09 112.871 45.306 112.893 45.415H111.63L111.581 44.545H111.548C111.505 44.645 111.438 44.756 111.351 44.882C111.264 45.008 111.155 45.122 111.023 45.226C110.878 45.3376 110.718 45.4285 110.548 45.496C110.339 45.5771 110.116 45.6165 109.892 45.612C109.597 45.612 109.321 45.557 109.064 45.448C108.81 45.3406 108.58 45.1827 108.388 44.9838C108.196 44.785 108.047 44.5493 107.949 44.291C107.843 44.0109 107.79 43.7135 107.793 43.414ZM110.171 44.48C110.357 44.48 110.521 44.453 110.663 44.398C110.805 44.343 110.928 44.278 111.032 44.201C111.135 44.125 111.223 44.041 111.294 43.947C111.365 43.854 111.428 43.775 111.483 43.709V41.971L111.056 41.987C110.422 42.009 109.941 42.119 109.613 42.315C109.285 42.512 109.121 42.829 109.121 43.267C109.121 43.671 109.214 43.974 109.4 44.177C109.586 44.379 109.843 44.48 110.17 44.48H110.171ZM118.255 38.708C118.188 38.6722 118.116 38.6447 118.042 38.626C117.897 38.5887 117.748 38.5718 117.599 38.576C117.184 38.576 116.859 38.689 116.624 38.913C116.404 39.1152 116.233 39.3648 116.124 39.643V45.415H114.795V37.543H116.009V38.609H116.041C116.096 38.456 116.167 38.306 116.255 38.159C116.342 38.011 116.451 37.879 116.583 37.765C116.713 37.65 116.87 37.56 117.05 37.495C117.259 37.4244 117.478 37.3905 117.698 37.395C117.884 37.395 118.034 37.412 118.148 37.445C118.264 37.478 118.354 37.505 118.419 37.527L118.255 38.707V38.708ZM123.749 39.068C123.698 39.0181 123.646 38.9691 123.593 38.921C123.51 38.8464 123.419 38.7804 123.323 38.724C123.199 38.6518 123.066 38.5941 122.929 38.552C122.759 38.5003 122.582 38.4753 122.404 38.478C122.12 38.478 121.854 38.53 121.609 38.634C121.363 38.738 121.149 38.904 120.969 39.134C120.789 39.364 120.647 39.662 120.543 40.028C120.439 40.394 120.387 40.84 120.387 41.364C120.387 41.944 120.434 42.43 120.527 42.824C120.619 43.217 120.747 43.532 120.912 43.767C121.076 44.002 121.275 44.171 121.511 44.275C121.745 44.379 122.005 44.431 122.289 44.431C122.694 44.431 123.003 44.36 123.216 44.218C123.429 44.076 123.579 43.961 123.666 43.873L124.208 44.792C124.134 44.8764 124.055 44.9556 123.97 45.029C123.847 45.1349 123.712 45.2259 123.568 45.3C123.378 45.397 123.177 45.4712 122.97 45.521C122.735 45.581 122.464 45.611 122.158 45.611C121.721 45.611 121.311 45.541 120.928 45.398C120.54 45.2521 120.196 45.0094 119.928 44.693C119.644 44.365 119.42 43.939 119.256 43.414C119.092 42.889 119.01 42.239 119.01 41.463C119.01 40.708 119.108 40.069 119.305 39.544C119.502 39.019 119.758 38.596 120.075 38.274C120.393 37.951 120.745 37.716 121.133 37.568C121.507 37.4231 121.905 37.3482 122.306 37.347C122.601 37.347 122.861 37.374 123.085 37.429C123.309 37.483 123.5 37.552 123.659 37.634C123.817 37.716 123.949 37.803 124.052 37.896C124.156 37.989 124.241 38.068 124.306 38.134L123.749 39.068ZM129.997 45.415V40.348C129.997 39.681 129.885 39.202 129.661 38.913C129.436 38.623 129.095 38.478 128.636 38.478C128.242 38.478 127.914 38.577 127.652 38.773C127.389 38.97 127.182 39.161 127.029 39.347V45.415H125.7V33.82L127.029 33.672V38.346H127.061C127.105 38.28 127.173 38.193 127.266 38.084C127.359 37.974 127.488 37.864 127.652 37.756C128.076 37.4788 128.573 37.3359 129.079 37.346C129.767 37.346 130.314 37.57 130.719 38.018C131.123 38.466 131.325 39.21 131.325 40.248V45.414H129.997V45.415ZM19.43 11.43C19.468 11.122 19.49 10.804 19.49 10.479C19.49 10.301 19.491 10.094 19.469 9.859C22.215 9.821 24.624 7.842 24.624 5.567C24.624 4.41 23.869 3.537 23.444 3.014C23.538 2.994 23.634 2.971 23.733 2.948C24.135 3.298 25.276 4.541 25.276 6.11C25.276 8.84 22.548 11.374 19.43 11.43ZM16.663 1.924C16.6157 1.62815 16.498 1.34798 16.32 1.107C16.33 0.828 16.444 0.562 16.892 0.781C16.65 1.029 16.837 1.469 16.837 1.469C16.837 1.469 17.333 1.239 17.23 0.911C17.966 1.087 17.436 2.075 16.663 1.924ZM16.025 3.325C15.922 2.9062 15.7262 2.51591 15.452 2.183C15.209 1.896 14.808 1.556 14.268 1.556C14.022 1.556 13.608 1.672 13.345 1.783C13.247 1.604 13.055 1.173 13.055 0.978C13.055 0.778 13.393 0.576 14.04 0.576C15.462 0.576 16.31 1.218 16.31 2.296C16.31 2.675 16.16 3.019 16.025 3.326V3.325ZM19.677 21.653C19.7941 21.6496 19.9106 21.6707 20.019 21.715C20.429 22.829 22.006 24.93 22.072 25.02L22.086 25.039L22.109 25.034C22.497 24.972 23.485 24.823 24.311 24.823H24.331C24.421 24.823 24.522 24.823 24.587 24.886C24.641 24.94 24.667 25.034 24.667 25.167C24.667 25.373 24.58 25.724 24.475 25.874C24.186 25.559 23.716 25.417 22.964 25.417C22.738 25.417 22.47 25.484 22.326 25.523L22.266 25.535L22.199 25.553L22.633 25.987C23.303 26.657 23.881 27.234 23.881 27.619C23.881 27.85 23.655 28.152 23.449 28.286C23.403 27.582 22.692 26.639 21.999 26.111L21.939 26.067L21.929 26.315C21.919 26.483 21.904 26.735 21.904 27.005C21.904 28.346 21.768 28.55 21.304 28.55C21.2192 28.5475 21.1353 28.5324 21.055 28.505C21.317 28.181 21.42 27.754 21.42 27.005L21.416 26.658L21.412 26.38C21.412 26.073 21.444 25.845 21.469 25.662L21.482 25.559L21.409 25.549C21.1011 25.5011 20.7905 25.4724 20.479 25.463C19.816 25.463 19.367 25.524 19.042 25.83C18.827 25.656 18.606 25.357 18.606 25.169C18.606 24.889 18.78 24.867 19.009 24.867C19.124 24.867 19.232 24.883 19.381 24.901C19.666 24.944 20.095 25.007 20.978 25.007H21.033L21.015 24.954C20.792 24.313 20.177 23.381 19.192 22.184C19.28 21.863 19.367 21.654 19.677 21.654V21.653ZM11.169 24.954L11.151 25.007H11.206C12.088 25.007 12.518 24.944 12.803 24.901C12.953 24.883 13.06 24.867 13.175 24.867C13.403 24.867 13.578 24.889 13.578 25.169C13.578 25.357 13.358 25.656 13.144 25.83C12.817 25.524 12.368 25.463 11.706 25.463C11.396 25.463 10.991 25.519 10.775 25.549L10.74 25.553L10.702 25.559L10.714 25.662C10.74 25.845 10.772 26.072 10.772 26.38L10.768 26.658L10.764 27.004C10.764 27.754 10.867 28.181 11.13 28.504C11.0497 28.5315 10.9658 28.547 10.881 28.55C10.415 28.55 10.281 28.346 10.281 27.006C10.281 26.736 10.266 26.483 10.257 26.316L10.243 26.066L10.185 26.111C9.49301 26.639 8.78001 27.581 8.73701 28.286C8.52901 28.152 8.30301 27.85 8.30301 27.619C8.30301 27.234 8.88101 26.657 9.55101 25.987L9.93601 25.603L9.98601 25.553L9.85901 25.523C9.6507 25.4621 9.43582 25.4265 9.21901 25.417C8.46901 25.417 7.99901 25.559 7.70901 25.874C7.60401 25.724 7.51701 25.373 7.51701 25.167C7.51701 25.034 7.54301 24.94 7.59701 24.887C7.66201 24.823 7.76401 24.823 7.85301 24.823H7.87301C8.70001 24.823 9.68901 24.972 10.075 25.033L10.098 25.039L10.112 25.019C10.18 24.93 11.756 22.829 12.167 21.715C12.2747 21.6705 12.3906 21.6494 12.507 21.653C12.817 21.653 12.904 21.863 12.994 22.183C12.007 23.381 11.392 24.313 11.169 24.953V24.954ZM6.90901 6.11C6.90901 4.54 8.05101 3.298 8.45301 2.948C8.54901 2.971 8.64601 2.993 8.74301 3.014C8.31501 3.536 7.56001 4.41 7.56001 5.567C7.56001 7.866 10.016 9.861 12.797 9.861C12.7783 10.0665 12.769 10.2727 12.769 10.479C12.769 10.818 12.789 11.133 12.821 11.431C9.67701 11.411 6.90801 8.859 6.90801 6.111L6.90901 6.11ZM28 10.95C29.412 13.181 30.515 13.144 32.183 13.144C30.803 12.087 29.891 10.733 29.456 10.041L26.879 5.918C26.6252 4.62594 25.9601 3.45072 24.983 2.568C25.315 2.442 25.59 2.31 25.756 2.185C24.073 2.185 22.406 1.33 21.488 1.33C20.898 1.33 20.519 1.683 20.519 2.149C20.556 2.669 21.091 3.196 22.079 3.196C22.302 3.196 22.589 3.167 22.903 3.115C23.438 3.86 23.869 4.535 23.869 5.496C23.869 7.301 21.711 8.708 19.532 8.708C19.408 8.708 19.292 8.703 19.169 8.694C18.972 8.247 18.314 7.496 18.314 6.641C18.314 5.207 19.25 4.035 19.25 2.615C19.25 1.731 18.82 1.185 18.655 0.957C18.922 0.709 19.215 0.404 19.283 0.195C19.127 0.262 18.943 0.27 18.673 0.27C17.63 0.271 16.779 0 15.949 0C15.475 0 15.349 0.146 15.349 0.285C15.349 0.336 15.355 0.389 15.369 0.413C15.1948 0.345092 15.0142 0.29484 14.83 0.263C14.5695 0.214848 14.305 0.19141 14.04 0.193C13.032 0.193 12.673 0.616 12.673 0.978C12.673 1.284 12.915 1.844 13.189 2.271C13.582 2.073 14.054 1.939 14.269 1.939C14.805 1.939 15.281 2.449 15.533 3.052C15.173 3.096 15.104 3.112 14.741 3.112C13.758 3.112 13.09 2.76 12.951 2.76C12.939 2.76 12.913 2.767 12.913 2.79C12.913 2.927 13.192 3.29 13.74 3.49C14.464 3.755 15.547 3.865 15.727 3.896C15.727 3.927 15.544 4.269 15.339 4.336C15.2972 4.34969 15.2524 4.35073 15.21 4.339C14.455 4.191 14.244 4.127 13.287 3.763C13.257 3.753 13.24 3.77 13.24 3.801C13.24 4.18 14.221 5.016 15.1 5.337C14.366 6.274 13.45 7.233 13.017 8.695C12.8959 8.7038 12.7745 8.70847 12.653 8.709C10.474 8.709 8.31601 7.302 8.31601 5.497C8.31601 4.535 8.74701 3.861 9.28201 3.116C9.59601 3.168 9.88201 3.197 10.106 3.197C11.094 3.197 11.629 2.669 11.668 2.15C11.668 1.684 11.288 1.331 10.698 1.331C9.78001 1.331 8.11401 2.186 6.42801 2.186C6.59501 2.311 6.87101 2.443 7.20101 2.569C6.22466 3.45214 5.55995 4.62722 5.30601 5.919L2.73001 10.042C2.29501 10.734 1.38001 12.088 0.00100708 13.145C1.66801 13.145 2.77401 13.182 4.18501 10.951L5.50601 8.837C5.60401 9.112 5.72401 9.379 5.86601 9.641L3.23801 13.845C2.80101 14.542 1.89401 15.885 0.509007 16.949C2.17701 16.949 3.28201 16.987 4.69301 14.757L6.95501 11.136C7.12501 11.316 7.30201 11.493 7.48901 11.661L4.29801 16.771C3.86001 17.469 2.95801 18.809 1.57101 19.871C3.23801 19.871 4.34301 19.911 5.75301 17.681L8.86501 12.699C9.07001 12.829 9.27901 12.954 9.49701 13.072L5.69701 19.151C5.26001 19.849 4.35801 21.185 2.97101 22.251C4.63801 22.251 5.74301 22.29 7.15401 20.061L11.065 13.8C11.297 13.888 11.531 13.973 11.769 14.05L7.35001 21.122C6.91901 21.811 5.99701 23.171 4.62401 24.222C6.29001 24.222 7.39701 24.261 8.80701 22.032L13.517 14.493C13.565 14.502 13.612 14.508 13.659 14.518C13.787 14.926 13.877 15.306 13.877 15.685C13.877 18.055 12.322 20.146 10.457 21.761C10.577 21.813 10.784 21.831 10.976 21.831C11.362 21.831 11.61 21.811 11.785 21.781C11.352 22.763 10.423 24.032 9.95501 24.688C9.34501 24.578 8.45501 24.492 7.87401 24.492C7.26401 24.492 7.19601 24.848 7.19601 25.166C7.19601 25.719 7.45501 26.158 7.75601 26.404C7.86801 26.121 8.09601 25.744 9.22001 25.744C9.24201 25.744 9.28001 25.746 9.33301 25.75C9.00501 26.116 7.97601 26.948 7.97601 27.618C7.97601 28.061 8.46201 28.728 9.10301 28.728C9.06601 28.584 9.07001 28.453 9.07001 28.354C9.07001 27.811 9.55001 27.175 9.95701 26.732C9.94501 26.864 9.95201 26.85 9.95201 27.005C9.95201 28.287 10.068 28.877 10.882 28.877C11.282 28.877 11.557 28.658 11.652 28.592C11.123 28.106 11.096 27.722 11.096 27.003L11.101 26.38C11.106 26.1996 11.0969 26.019 11.074 25.84C11.364 25.8 11.483 25.8 11.707 25.8C11.707 25.8 12.864 25.708 13.143 26.31C13.458 26.022 13.913 25.615 13.913 25.168C13.913 24.871 13.773 24.536 13.176 24.536C12.95 24.536 12.241 24.674 11.646 24.674C11.806 24.32 12.516 23.281 13.132 22.527C13.226 22.819 13.371 23.135 13.693 23.394C13.739 22.909 14.023 21.375 14.781 20.478C14.869 21.084 14.987 21.706 14.987 23.016C14.987 26.206 14.221 28.56 12.594 29.01C12.806 29.378 13.254 29.71 13.718 29.71C14.313 29.71 14.638 29.036 14.968 28.4C15.14 28.869 15.616 30.018 16.092 30.018C16.569 30.018 17.046 28.869 17.218 28.4C17.548 29.036 17.873 29.71 18.468 29.71C18.933 29.71 19.38 29.378 19.593 29.01C17.965 28.56 17.198 26.205 17.198 23.016C17.198 21.706 17.316 21.084 17.404 20.478C18.164 21.375 18.449 22.909 18.492 23.394C18.815 23.135 18.962 22.819 19.054 22.527C19.668 23.281 20.38 24.32 20.539 24.674C19.945 24.674 19.234 24.536 19.009 24.536C18.414 24.536 18.274 24.871 18.274 25.168C18.274 25.615 18.73 26.022 19.044 26.31C19.321 25.708 20.48 25.8 20.48 25.8C20.703 25.8 20.822 25.8 21.114 25.84C21.0901 26.0189 21.0807 26.1995 21.086 26.38L21.091 27.003C21.091 27.723 21.063 28.106 20.534 28.592C20.629 28.658 20.904 28.877 21.304 28.877C22.119 28.877 22.236 28.287 22.236 27.005C22.236 26.85 22.24 26.864 22.229 26.732C22.635 27.175 23.116 27.811 23.116 28.354C23.116 28.453 23.122 28.584 23.082 28.727C23.724 28.727 24.212 28.061 24.212 27.617C24.212 26.948 23.182 26.116 22.852 25.75C22.905 25.746 22.944 25.744 22.965 25.744C24.091 25.744 24.318 26.121 24.431 26.404C24.6095 26.2514 24.7522 26.0614 24.849 25.8474C24.9457 25.6334 24.9942 25.4008 24.991 25.166C24.991 24.848 24.921 24.492 24.312 24.492C23.731 24.492 22.843 24.578 22.232 24.688C21.762 24.032 20.836 22.763 20.402 21.78C20.577 21.81 20.826 21.831 21.21 21.831C21.403 21.831 21.61 21.813 21.73 21.761C19.864 20.146 18.31 18.054 18.31 15.685C18.31 15.306 18.4 14.926 18.527 14.518C18.573 14.508 18.622 14.502 18.669 14.493L23.379 22.031C24.789 24.261 25.896 24.222 27.562 24.222C26.189 23.171 25.267 21.811 24.836 21.122L20.416 14.048C20.656 13.972 20.891 13.887 21.122 13.798L25.032 20.059C26.442 22.289 27.548 22.25 29.216 22.25C27.828 21.184 26.926 19.848 26.488 19.15L22.69 13.071C22.905 12.953 23.116 12.827 23.32 12.698L26.433 17.679C27.844 19.91 28.948 19.87 30.616 19.87C29.228 18.808 28.328 17.468 27.888 16.77L24.697 11.66C24.884 11.492 25.063 11.315 25.23 11.135L27.494 14.756C28.904 16.986 30.009 16.948 31.677 16.948C30.29 15.884 29.387 14.541 28.948 13.844L26.322 9.64C26.462 9.378 26.582 9.11 26.682 8.836L28 10.95ZM45.375 28.878H40.552V1.318H45.375V28.878Z" fill="black"/>
    <path fill-rule="evenodd" clip-rule="evenodd" d="M45.375 56.44H40.552V28.877H45.375V56.44Z" fill="#FF0000"/>
    <path fill-rule="evenodd" clip-rule="evenodd" d="M45.375 84.0004H40.552V56.4404H45.375V84.0004Z" fill="#FFCC00"/>
</svg>