<svg width="168" height="84" viewBox="0 0 168 84" fill="none" xmlns="http://www.w3.org/2000/svg">
    <path d="M61.564 3.913C61.564 4.306 61.514 4.651 61.416 4.946C61.318 5.241 61.184 5.496 61.015 5.708C60.845 5.922 60.648 6.094 60.425 6.225C60.2 6.356 59.968 6.455 59.727 6.52V6.553C60.022 6.608 60.298 6.711 60.555 6.865C61.084 7.17858 61.485 7.66919 61.687 8.25C61.802 8.562 61.859 8.904 61.859 9.275C61.864 9.69614 61.7859 10.1141 61.629 10.505C61.476 10.877 61.239 11.199 60.916 11.473C60.594 11.746 60.186 11.959 59.694 12.113C59.203 12.265 58.618 12.342 57.94 12.342H55.628V1.027H57.808C58.475 1.027 59.047 1.095 59.522 1.232C59.998 1.368 60.389 1.562 60.695 1.814C61.001 2.065 61.222 2.369 61.359 2.724C61.496 3.079 61.564 3.476 61.564 3.913V3.913ZM60.121 3.962C60.121 3.437 59.935 3.005 59.563 2.667C59.192 2.327 58.607 2.158 57.809 2.158H57.054V6.061H57.792C58.557 6.061 59.137 5.875 59.531 5.503C59.924 5.132 60.121 4.618 60.121 3.962V3.962ZM60.334 9.177C60.334 8.565 60.134 8.081 59.736 7.725C59.336 7.37 58.766 7.193 58.022 7.193H57.054V11.161H57.94C58.782 11.161 59.391 10.994 59.768 10.661C60.146 10.327 60.334 9.833 60.334 9.177V9.177ZM69.124 12.342H67.91V11.456H67.877C67.7153 11.7145 67.5001 11.9354 67.246 12.104C67.076 12.219 66.872 12.32 66.631 12.407C66.391 12.495 66.123 12.539 65.828 12.539C65.478 12.539 65.164 12.487 64.885 12.383C64.6079 12.2806 64.362 12.1084 64.171 11.883C63.975 11.653 63.824 11.355 63.721 10.989C63.617 10.623 63.565 10.172 63.565 9.636V4.47H64.893V9.538C64.893 10.194 65 10.661 65.213 10.94C65.426 11.218 65.757 11.358 66.205 11.358C66.587 11.358 66.91 11.262 67.172 11.071C67.435 10.88 67.642 10.691 67.795 10.505V4.47H69.124V12.342ZM75.454 12.342V7.275C75.454 6.608 75.342 6.129 75.118 5.84C74.893 5.55 74.552 5.405 74.093 5.405C73.699 5.405 73.371 5.503 73.109 5.7C72.846 5.897 72.639 6.088 72.485 6.274V12.342H71.157V4.47H72.371V5.356H72.403C72.5652 5.09483 72.7839 4.87339 73.043 4.708C73.2383 4.58336 73.4474 4.48169 73.666 4.405C73.906 4.317 74.18 4.274 74.486 4.274C74.836 4.274 75.153 4.326 75.437 4.429C75.722 4.533 75.962 4.7 76.159 4.929C76.356 5.159 76.509 5.457 76.618 5.823C76.728 6.189 76.782 6.641 76.782 7.176V12.342H75.454V12.342ZM78.405 8.521C78.405 7.723 78.509 7.056 78.717 6.521C78.925 5.985 79.193 5.553 79.521 5.225C79.849 4.897 80.221 4.665 80.636 4.528C81.0377 4.39363 81.4584 4.32442 81.882 4.323C82.133 4.323 82.352 4.342 82.538 4.38C82.724 4.418 82.877 4.465 82.998 4.52V0.748L84.324 0.6V12.342H83.111V11.505H83.078C82.9449 11.7472 82.7602 11.9571 82.537 12.12C82.3615 12.2467 82.168 12.3465 81.963 12.416C81.733 12.498 81.465 12.539 81.159 12.539C80.788 12.539 80.435 12.465 80.102 12.317C79.755 12.159 79.4532 11.9167 79.224 11.612C78.973 11.289 78.774 10.874 78.626 10.366C78.478 9.857 78.404 9.242 78.404 8.521H78.405ZM81.521 11.358C81.7614 11.3628 82.0002 11.3171 82.2219 11.2239C82.4435 11.1308 82.6432 10.9921 82.808 10.817C82.891 10.729 82.953 10.653 82.998 10.587V5.733C82.8665 5.6512 82.7259 5.58508 82.579 5.536C82.3852 5.47618 82.1828 5.44848 81.98 5.454C81.674 5.454 81.387 5.506 81.12 5.61C80.852 5.714 80.62 5.886 80.422 6.127C80.226 6.367 80.07 6.679 79.955 7.061C79.84 7.444 79.783 7.914 79.783 8.471C79.783 9.018 79.829 9.475 79.923 9.841C80.015 10.207 80.143 10.502 80.308 10.726C80.472 10.951 80.658 11.112 80.865 11.21C81.073 11.309 81.292 11.358 81.521 11.358V11.358ZM91.41 7.127C91.41 7.466 91.399 7.758 91.377 8.004C91.358 8.2203 91.336 8.43632 91.311 8.652H87.294C87.337 9.582 87.537 10.265 87.892 10.702C88.247 11.139 88.759 11.358 89.425 11.358C89.655 11.358 89.863 11.331 90.049 11.276C90.44 11.1663 90.7959 10.9572 91.082 10.669L91.574 11.604C91.519 11.659 91.437 11.738 91.328 11.842C91.218 11.945 91.071 12.049 90.885 12.153C90.6666 12.2695 90.4354 12.3601 90.196 12.423C89.8804 12.5051 89.5551 12.5441 89.229 12.539C88.737 12.539 88.291 12.457 87.892 12.293C87.4935 12.1295 87.1435 11.8668 86.875 11.53C86.597 11.186 86.381 10.748 86.228 10.218C86.075 9.688 85.998 9.051 85.998 8.308C85.998 7.608 86.078 7.004 86.236 6.496C86.394 5.987 86.61 5.569 86.884 5.241C87.157 4.913 87.474 4.67 87.834 4.511C88.195 4.353 88.584 4.274 88.999 4.274C89.753 4.274 90.344 4.511 90.77 4.987C91.196 5.462 91.41 6.176 91.41 7.127V7.127ZM88.917 5.356C88.447 5.356 88.07 5.553 87.785 5.946C87.501 6.34 87.337 6.908 87.294 7.652H90.164C90.174 7.597 90.182 7.518 90.188 7.414C90.1936 7.30209 90.1962 7.19005 90.196 7.078C90.196 6.531 90.086 6.108 89.868 5.807C89.649 5.507 89.332 5.356 88.917 5.356V5.356ZM96.575 6.061C96.4295 5.91253 96.2705 5.77794 96.1 5.659C95.87 5.489 95.57 5.405 95.198 5.405C94.848 5.405 94.58 5.487 94.394 5.651C94.3066 5.72245 94.2362 5.81247 94.188 5.91453C94.1397 6.01658 94.1148 6.12811 94.115 6.241C94.115 6.537 94.2 6.78 94.37 6.971C94.539 7.163 94.799 7.367 95.149 7.586L95.64 7.881C96.176 8.198 96.597 8.54 96.903 8.906C97.209 9.272 97.363 9.746 97.363 10.325C97.363 10.948 97.146 11.473 96.715 11.899C96.283 12.325 95.662 12.539 94.853 12.539C94.536 12.539 94.257 12.506 94.017 12.44C93.8001 12.3829 93.5888 12.3059 93.386 12.21C93.224 12.1345 93.0724 12.0384 92.935 11.924C92.815 11.82 92.716 11.724 92.64 11.637L93.28 10.587C93.345 10.653 93.424 10.729 93.517 10.817C93.7412 11.0234 94.0068 11.1799 94.296 11.276C94.46 11.331 94.651 11.358 94.87 11.358C95.263 11.358 95.564 11.27 95.772 11.095C95.8693 11.0192 95.9479 10.9221 96.0019 10.8111C96.0558 10.7002 96.0835 10.5784 96.083 10.455C96.0866 10.291 96.0619 10.1276 96.01 9.972C95.9609 9.83567 95.8854 9.7103 95.788 9.603C95.6804 9.48579 95.5596 9.38143 95.428 9.292C95.2654 9.18013 95.101 9.07078 94.935 8.964L94.443 8.652C93.951 8.335 93.566 8.002 93.287 7.652C93.009 7.302 92.869 6.854 92.869 6.307C92.869 6.012 92.927 5.741 93.041 5.495C93.1552 5.2498 93.3202 5.03166 93.525 4.855C93.733 4.675 93.976 4.533 94.255 4.429C94.5413 4.32409 94.8441 4.27159 95.149 4.274C95.4142 4.26908 95.6788 4.29935 95.936 4.364C96.2909 4.45636 96.6192 4.63032 96.895 4.872C96.999 4.965 97.084 5.044 97.149 5.11L96.575 6.061V6.061ZM103.053 12.341V7.276C103.053 6.63 102.96 6.166 102.773 5.882C102.588 5.597 102.287 5.455 101.872 5.455C101.507 5.44912 101.148 5.54879 100.839 5.742C100.714 5.81864 100.598 5.90922 100.494 6.012C100.396 6.112 100.314 6.199 100.249 6.275V12.343H98.92V4.47H100.134V5.356H100.167C100.221 5.268 100.303 5.162 100.412 5.036C100.68 4.73978 101.018 4.51674 101.396 4.388C101.616 4.312 101.861 4.274 102.134 4.274C103.031 4.274 103.665 4.624 104.037 5.324C104.243 5.04078 104.505 4.80342 104.807 4.627C105.203 4.39067 105.658 4.2685 106.119 4.274C107.715 4.274 108.513 5.203 108.513 7.061V12.341H107.185V7.276C107.185 6.63 107.07 6.166 106.841 5.882C106.611 5.597 106.272 5.455 105.824 5.455C105.452 5.455 105.144 5.545 104.898 5.725C104.652 5.906 104.458 6.078 104.315 6.242C104.337 6.362 104.354 6.492 104.365 6.628C104.375 6.764 104.381 6.909 104.381 7.062V12.342H103.053V12.341ZM111.826 12.341H110.498V4.471H111.826V12.341ZM111.17 2.568C110.897 2.568 110.678 2.481 110.514 2.306C110.35 2.131 110.268 1.901 110.268 1.617C110.268 1.344 110.35 1.12 110.514 0.945C110.678 0.77 110.897 0.682 111.17 0.682C111.432 0.682 111.646 0.77 111.81 0.945C111.974 1.12 112.056 1.344 112.056 1.617C112.056 1.901 111.974 2.131 111.81 2.306C111.728 2.39275 111.629 2.461 111.518 2.50619C111.408 2.55137 111.289 2.57245 111.17 2.568V2.568ZM118.156 12.342V7.275C118.156 6.608 118.044 6.129 117.82 5.84C117.596 5.55 117.254 5.405 116.795 5.405C116.401 5.405 116.073 5.503 115.811 5.7C115.549 5.897 115.341 6.088 115.188 6.274V12.342H113.859V4.47H115.073V5.356H115.106C115.268 5.09483 115.487 4.87339 115.746 4.708C115.941 4.58343 116.15 4.48176 116.368 4.405C116.608 4.317 116.882 4.274 117.188 4.274C117.538 4.274 117.855 4.326 118.14 4.429C118.424 4.533 118.664 4.7 118.861 4.929C119.058 5.159 119.211 5.457 119.321 5.823C119.429 6.189 119.484 6.641 119.484 7.176V12.342H118.156V12.342ZM122.796 12.342H121.468V4.47H122.797V12.342H122.796ZM122.141 2.568C121.868 2.568 121.649 2.481 121.485 2.306C121.321 2.131 121.239 1.901 121.239 1.617C121.239 1.344 121.321 1.12 121.485 0.945C121.649 0.77 121.868 0.682 122.141 0.682C122.403 0.682 122.616 0.77 122.781 0.945C122.944 1.12 123.026 1.344 123.026 1.617C123.026 1.901 122.944 2.131 122.78 2.306C122.698 2.39275 122.599 2.461 122.488 2.50619C122.378 2.55137 122.259 2.57245 122.14 2.568H122.141ZM128.225 6.061C128.079 5.91248 127.92 5.77789 127.749 5.659C127.519 5.489 127.219 5.405 126.847 5.405C126.497 5.405 126.23 5.487 126.044 5.651C125.956 5.72235 125.886 5.81233 125.837 5.91439C125.789 6.01645 125.764 6.12803 125.764 6.241C125.764 6.537 125.85 6.78 126.019 6.971C126.189 7.163 126.449 7.367 126.798 7.586L127.29 7.881C127.826 8.198 128.247 8.54 128.553 8.906C128.859 9.272 129.012 9.746 129.012 10.325C129.012 10.948 128.796 11.473 128.364 11.899C127.932 12.325 127.312 12.539 126.503 12.539C126.186 12.539 125.907 12.506 125.667 12.44C125.45 12.3829 125.238 12.306 125.035 12.21C124.873 12.1344 124.722 12.0383 124.585 11.924C124.464 11.82 124.365 11.724 124.289 11.637L124.929 10.587C124.994 10.653 125.073 10.729 125.166 10.817C125.391 11.0236 125.656 11.18 125.946 11.276C126.109 11.331 126.301 11.358 126.519 11.358C126.913 11.358 127.214 11.27 127.421 11.095C127.518 11.0193 127.597 10.9222 127.651 10.8113C127.705 10.7003 127.733 10.5784 127.733 10.455C127.736 10.2909 127.711 10.1276 127.659 9.972C127.61 9.83575 127.535 9.71038 127.438 9.603C127.33 9.48573 127.209 9.38137 127.077 9.292C126.915 9.18013 126.751 9.07079 126.585 8.964L126.093 8.652C125.601 8.335 125.215 8.002 124.937 7.652C124.658 7.302 124.519 6.854 124.519 6.307C124.519 6.012 124.576 5.741 124.691 5.495C124.805 5.2498 124.97 5.03166 125.175 4.855C125.382 4.675 125.625 4.533 125.905 4.429C126.191 4.32421 126.493 4.27171 126.798 4.274C127.063 4.26908 127.328 4.29935 127.585 4.364C127.94 4.45622 128.269 4.63018 128.545 4.872C128.648 4.965 128.733 5.044 128.799 5.11L128.225 6.061V6.061ZM133.931 5.553H132.21V9.915C132.21 10.472 132.28 10.852 132.423 11.055C132.565 11.257 132.805 11.358 133.144 11.358C133.341 11.358 133.511 11.331 133.653 11.276C133.761 11.2373 133.866 11.1877 133.964 11.128L134.144 12.194C134.02 12.275 133.888 12.3437 133.751 12.399C133.543 12.492 133.265 12.539 132.915 12.539C132.237 12.539 131.729 12.35 131.39 11.973C131.05 11.596 130.881 10.97 130.881 10.095V5.553H129.931V4.667L130.881 4.47L131.029 2.273H132.209V4.47H134.095L133.931 5.553ZM140.376 7.127C140.376 7.466 140.366 7.758 140.343 8.004C140.324 8.22029 140.303 8.43631 140.278 8.652H136.26C136.304 9.582 136.503 10.265 136.859 10.702C137.214 11.139 137.725 11.358 138.392 11.358C138.622 11.358 138.829 11.331 139.015 11.276C139.406 11.1663 139.762 10.9572 140.048 10.669L140.54 11.604C140.485 11.659 140.403 11.738 140.294 11.842C140.184 11.945 140.037 12.049 139.851 12.153C139.633 12.2695 139.402 12.3601 139.163 12.423C138.847 12.5052 138.521 12.5442 138.195 12.539C137.703 12.539 137.258 12.457 136.859 12.293C136.461 12.1295 136.11 11.8668 135.842 11.53C135.563 11.186 135.347 10.748 135.194 10.218C135.041 9.688 134.964 9.051 134.964 8.308C134.964 7.608 135.044 7.004 135.202 6.496C135.361 5.987 135.577 5.569 135.85 5.241C136.123 4.913 136.44 4.67 136.801 4.511C137.162 4.353 137.551 4.274 137.966 4.274C138.72 4.274 139.31 4.511 139.736 4.987C140.163 5.462 140.376 6.176 140.376 7.127V7.127ZM137.884 5.356C137.414 5.356 137.036 5.553 136.752 5.946C136.468 6.34 136.304 6.908 136.26 7.652H139.13C139.14 7.597 139.149 7.518 139.155 7.414C139.161 7.30209 139.163 7.19005 139.163 7.078C139.163 6.531 139.053 6.108 138.835 5.807C138.616 5.507 138.299 5.356 137.884 5.356V5.356ZM145.607 5.635C145.54 5.59919 145.468 5.57166 145.394 5.553C145.249 5.51568 145.1 5.49885 144.951 5.503C144.536 5.503 144.211 5.616 143.976 5.84C143.756 6.04216 143.585 6.29182 143.476 6.57V12.342H142.147V4.47H143.361V5.536H143.394C143.448 5.383 143.519 5.233 143.607 5.086C143.694 4.938 143.803 4.806 143.935 4.692C144.065 4.577 144.222 4.487 144.402 4.422C144.611 4.35137 144.83 4.31753 145.05 4.322C145.236 4.322 145.386 4.339 145.5 4.372C145.616 4.405 145.706 4.432 145.771 4.454L145.607 5.634V5.635ZM148.247 12.342H146.919V4.47H148.248V12.342H148.247ZM147.592 2.568C147.318 2.568 147.1 2.481 146.936 2.306C146.772 2.131 146.69 1.901 146.69 1.617C146.69 1.344 146.772 1.12 146.936 0.945C147.1 0.77 147.318 0.682 147.592 0.682C147.854 0.682 148.067 0.77 148.232 0.945C148.395 1.12 148.477 1.344 148.477 1.617C148.477 1.901 148.395 2.131 148.231 2.306C148.149 2.39275 148.05 2.461 147.939 2.50619C147.829 2.55137 147.71 2.57245 147.591 2.568H147.592ZM155.791 12.342H154.577V11.456H154.545C154.383 11.7145 154.168 11.9354 153.914 12.104C153.744 12.219 153.539 12.32 153.298 12.407C153.058 12.495 152.79 12.539 152.495 12.539C152.145 12.539 151.831 12.487 151.552 12.383C151.275 12.2805 151.03 12.1082 150.839 11.883C150.642 11.653 150.491 11.355 150.388 10.989C150.284 10.623 150.232 10.172 150.232 9.636V4.47H151.56V9.538C151.56 10.194 151.667 10.661 151.88 10.94C152.093 11.218 152.424 11.358 152.872 11.358C153.255 11.358 153.577 11.262 153.84 11.071C154.102 10.88 154.31 10.691 154.463 10.505V4.47H155.791V12.342V12.342ZM161.957 12.342V7.275C161.957 6.629 161.864 6.165 161.678 5.881C161.492 5.596 161.192 5.454 160.776 5.454C160.411 5.44812 160.052 5.54779 159.743 5.741C159.618 5.8177 159.503 5.90828 159.399 6.011C159.3 6.111 159.219 6.198 159.153 6.274V12.342H157.824V4.47H159.038V5.356H159.071C159.125 5.268 159.207 5.162 159.317 5.036C159.585 4.73978 159.923 4.51674 160.301 4.388C160.519 4.312 160.765 4.274 161.039 4.274C161.935 4.274 162.569 4.624 162.941 5.324C163.147 5.04078 163.409 4.80342 163.711 4.627C164.107 4.39067 164.561 4.2685 165.023 4.274C166.62 4.274 167.418 5.203 167.418 7.061V12.341H166.089V7.276C166.089 6.63 165.975 6.166 165.745 5.882C165.515 5.597 165.177 5.455 164.728 5.455C164.357 5.455 164.048 5.545 163.802 5.725C163.556 5.906 163.362 6.078 163.22 6.242C163.241 6.362 163.258 6.492 163.269 6.628C163.279 6.764 163.285 6.909 163.285 7.062V12.342H161.957V12.342ZM58.66 22.089H57.053V28.879H55.725V22.089H54.774V21.204L55.725 21.024V19.449C55.725 19.023 55.785 18.656 55.905 18.35C56.025 18.044 56.185 17.793 56.381 17.596C56.574 17.4018 56.81 17.2558 57.07 17.17C57.332 17.082 57.61 17.038 57.906 17.038C58.19 17.038 58.431 17.077 58.628 17.153C58.824 17.23 58.956 17.29 59.021 17.333L58.742 18.433C58.654 18.3776 58.5609 18.3307 58.464 18.293C58.3225 18.24 58.1721 18.2149 58.021 18.219C57.704 18.219 57.463 18.318 57.299 18.514C57.135 18.711 57.053 19.072 57.053 19.597V21.007H58.824L58.66 22.089V22.089ZM65.482 28.879H64.27V27.993H64.237C64.0753 28.2515 63.8601 28.4724 63.606 28.641C63.436 28.755 63.231 28.856 62.991 28.944C62.751 29.031 62.482 29.075 62.187 29.075C61.837 29.075 61.523 29.023 61.244 28.919C60.9673 28.8165 60.7217 28.6442 60.531 28.419C60.334 28.189 60.184 27.892 60.08 27.525C59.976 27.159 59.924 26.708 59.924 26.172V21.007H61.252V26.074C61.252 26.73 61.359 27.197 61.572 27.476C61.785 27.755 62.116 27.894 62.564 27.894C62.947 27.894 63.269 27.799 63.532 27.607C63.794 27.416 64.002 27.227 64.155 27.042V21.007H65.483V28.878L65.482 28.879ZM62.22 18.743C62.22 18.994 62.143 19.197 61.99 19.35C61.9178 19.4243 61.8311 19.4831 61.7353 19.5226C61.6395 19.5622 61.5366 19.5817 61.433 19.58C61.3292 19.5819 61.2261 19.5624 61.1302 19.5228C61.0342 19.4833 60.9473 19.4245 60.875 19.35C60.722 19.197 60.645 18.994 60.645 18.743C60.645 18.491 60.722 18.289 60.875 18.136C60.9473 18.0615 61.0342 18.0027 61.1302 17.9632C61.2261 17.9236 61.3292 17.9041 61.433 17.906C61.651 17.906 61.837 17.983 61.99 18.136C62.143 18.289 62.22 18.491 62.22 18.743ZM64.745 18.743C64.745 18.994 64.669 19.197 64.515 19.35C64.4428 19.4243 64.3561 19.4831 64.2603 19.5226C64.1645 19.5622 64.0616 19.5817 63.958 19.58C63.8544 19.5817 63.7515 19.5622 63.6557 19.5226C63.5599 19.4831 63.4732 19.4243 63.401 19.35C63.247 19.197 63.171 18.994 63.171 18.743C63.171 18.491 63.247 18.289 63.401 18.136C63.4732 18.0617 63.5599 18.0029 63.6557 17.9634C63.7515 17.9238 63.8544 17.9043 63.958 17.906C64.177 17.906 64.363 17.983 64.516 18.136C64.669 18.289 64.746 18.491 64.746 18.743H64.745ZM70.977 22.17C70.9096 22.1342 70.8381 22.1067 70.764 22.088C70.6194 22.051 70.4702 22.0345 70.321 22.039C69.905 22.039 69.581 22.151 69.345 22.375C69.125 22.5772 68.954 22.8268 68.845 23.105V28.877H67.517V21.006H68.73V22.072H68.763C68.818 21.919 68.889 21.768 68.976 21.621C69.064 21.473 69.173 21.342 69.304 21.227C69.435 21.112 69.591 21.022 69.771 20.957C69.9796 20.8867 70.1989 20.8532 70.419 20.858C70.605 20.858 70.755 20.875 70.87 20.908C70.985 20.94 71.075 20.968 71.14 20.989L70.977 22.17V22.17ZM81.603 20.448C81.603 20.842 81.554 21.186 81.456 21.481C81.357 21.777 81.223 22.031 81.054 22.244C80.884 22.457 80.688 22.629 80.464 22.761C80.239 22.891 80.007 22.991 79.767 23.056V23.089C80.062 23.143 80.337 23.247 80.595 23.4C81.1238 23.714 81.5244 24.205 81.726 24.786C81.841 25.097 81.898 25.439 81.898 25.811C81.903 26.2321 81.8249 26.6501 81.668 27.041C81.516 27.412 81.278 27.735 80.955 28.008C80.633 28.281 80.225 28.495 79.734 28.648C79.242 28.801 78.657 28.878 77.979 28.878H75.667V17.562H77.847C78.515 17.562 79.086 17.631 79.562 17.767C80.037 17.904 80.428 18.097 80.734 18.349C81.04 18.601 81.262 18.904 81.398 19.259C81.535 19.615 81.603 20.011 81.603 20.449V20.448ZM80.16 20.498C80.16 19.973 79.974 19.541 79.603 19.202C79.231 18.863 78.646 18.694 77.848 18.694H77.094V22.597H77.831C78.597 22.597 79.176 22.411 79.57 22.039C79.963 21.667 80.16 21.153 80.16 20.498ZM80.373 25.712C80.373 25.1 80.173 24.616 79.775 24.261C79.375 23.906 78.805 23.728 78.061 23.728H77.094V27.697H77.979C78.821 27.697 79.43 27.53 79.808 27.197C80.185 26.863 80.373 26.368 80.373 25.712ZM84.981 28.877H83.653V21.006H84.981V28.877ZM84.325 19.104C84.052 19.104 83.833 19.016 83.669 18.841C83.505 18.666 83.423 18.437 83.423 18.153C83.423 17.879 83.505 17.655 83.669 17.48C83.833 17.305 84.052 17.218 84.325 17.218C84.588 17.218 84.801 17.305 84.965 17.48C85.129 17.655 85.211 17.88 85.211 18.153C85.211 18.437 85.129 18.666 84.965 18.841C84.8832 18.9279 84.7838 18.9964 84.6735 19.0417C84.5631 19.0871 84.4443 19.1083 84.325 19.104V19.104ZM88.327 27.041C88.327 27.369 88.373 27.598 88.467 27.729C88.559 27.861 88.72 27.926 88.95 27.926C89.07 27.926 89.171 27.916 89.253 27.893C89.335 27.871 89.398 27.85 89.442 27.828L89.557 28.812C89.4398 28.8635 89.3192 28.907 89.196 28.942C88.9663 29.0039 88.7288 29.0318 88.491 29.025C88.042 29.025 87.681 28.888 87.408 28.615C87.135 28.342 86.998 27.855 86.998 27.155V17.283L88.327 17.136V27.041V27.041ZM90.393 25.056C90.393 24.258 90.497 23.591 90.704 23.056C90.912 22.52 91.18 22.088 91.508 21.76C91.836 21.432 92.208 21.2 92.623 21.063C93.0247 20.9286 93.4454 20.8594 93.869 20.858C94.121 20.858 94.339 20.878 94.525 20.916C94.711 20.954 94.865 21 94.985 21.056V17.283L96.313 17.136V28.877H95.099V28.041H95.067C94.9336 28.2833 94.7486 28.4932 94.525 28.656C94.3494 28.7824 94.156 28.8818 93.951 28.951C93.721 29.033 93.454 29.074 93.148 29.074C92.776 29.074 92.424 29 92.09 28.853C91.7433 28.6946 91.4418 28.4519 91.213 28.147C90.961 27.825 90.762 27.41 90.614 26.901C90.467 26.393 90.393 25.778 90.393 25.056V25.056ZM93.509 27.893C93.7494 27.8978 93.9882 27.8521 94.2099 27.7589C94.4315 27.6658 94.6312 27.5271 94.796 27.352C94.878 27.265 94.941 27.188 94.985 27.122V22.27C94.8535 22.1882 94.7129 22.1221 94.566 22.073C94.3725 22.0133 94.1705 21.9856 93.968 21.991C93.662 21.991 93.375 22.043 93.107 22.147C92.839 22.25 92.607 22.423 92.41 22.663C92.213 22.903 92.057 23.215 91.943 23.598C91.828 23.981 91.77 24.451 91.77 25.008C91.77 25.555 91.817 26.011 91.91 26.378C92.003 26.744 92.131 27.038 92.295 27.263C92.459 27.487 92.645 27.648 92.853 27.747C93.06 27.845 93.279 27.894 93.509 27.894V27.893ZM103.856 28.877H102.643V27.992H102.61C102.448 28.2505 102.233 28.4714 101.979 28.64C101.809 28.754 101.604 28.855 101.364 28.943C101.124 29.03 100.855 29.074 100.56 29.074C100.21 29.074 99.896 29.022 99.617 28.918C99.3403 28.8155 99.0947 28.6432 98.904 28.418C98.707 28.188 98.557 27.891 98.453 27.524C98.349 27.158 98.297 26.707 98.297 26.171V21.006H99.625V26.073C99.625 26.729 99.732 27.196 99.945 27.475C100.158 27.754 100.489 27.893 100.937 27.893C101.32 27.893 101.642 27.798 101.905 27.606C102.167 27.415 102.375 27.226 102.528 27.041V21.006H103.856V28.877V28.877ZM110.186 28.877V23.81C110.186 23.143 110.074 22.665 109.85 22.375C109.626 22.085 109.284 21.941 108.825 21.941C108.431 21.941 108.103 22.039 107.841 22.236C107.579 22.433 107.371 22.624 107.218 22.81V28.877H105.89V21.006H107.103V21.891H107.136C107.298 21.6298 107.517 21.4084 107.776 21.243C107.971 21.1184 108.18 21.0167 108.399 20.94C108.639 20.853 108.913 20.81 109.219 20.81C109.569 20.81 109.885 20.861 110.169 20.965C110.454 21.069 110.694 21.235 110.891 21.465C111.088 21.695 111.241 21.993 111.351 22.359C111.46 22.725 111.514 23.176 111.514 23.712V28.877H110.186V28.877ZM119.14 22.039H118.156C118.407 22.454 118.533 22.925 118.533 23.449C118.533 23.865 118.465 24.239 118.328 24.573C118.2 24.8928 118.005 25.1808 117.754 25.417C117.508 25.647 117.218 25.822 116.885 25.942C116.552 26.062 116.194 26.122 115.811 26.122H115.598C115.527 26.1217 115.456 26.1163 115.385 26.106C115.236 26.1719 115.098 26.2603 114.975 26.368C114.905 26.4258 114.85 26.4987 114.813 26.5812C114.776 26.6637 114.758 26.7536 114.761 26.844C114.761 27.008 114.824 27.142 114.95 27.246C115.076 27.349 115.28 27.401 115.565 27.401H116.565C116.913 27.3984 117.259 27.437 117.598 27.516C117.915 27.593 118.191 27.716 118.427 27.886C118.662 28.055 118.845 28.271 118.976 28.533C119.107 28.795 119.173 29.113 119.173 29.484C119.173 29.91 119.083 30.298 118.903 30.648C118.722 30.998 118.467 31.298 118.14 31.55C117.78 31.8175 117.374 32.0174 116.942 32.14C116.431 32.2881 115.9 32.3602 115.368 32.354C114.526 32.354 113.887 32.171 113.449 31.804C113.012 31.438 112.794 30.911 112.794 30.222C112.794 29.927 112.845 29.672 112.949 29.459C113.053 29.246 113.176 29.06 113.319 28.902C113.46 28.743 113.605 28.618 113.753 28.525L114.105 28.303V28.271C113.767 28.019 113.597 27.653 113.597 27.171C113.597 26.964 113.638 26.784 113.72 26.631C113.802 26.478 113.895 26.351 113.999 26.253C114.103 26.155 114.207 26.076 114.31 26.016C114.387 25.9698 114.466 25.9287 114.548 25.893V25.86C114.142 25.6725 113.802 25.3668 113.573 24.983C113.327 24.583 113.203 24.073 113.203 23.449C113.203 23.012 113.275 22.627 113.417 22.293C113.546 21.9786 113.742 21.696 113.991 21.465C114.231 21.246 114.513 21.082 114.835 20.973C115.158 20.863 115.505 20.809 115.876 20.809C116.235 20.8067 116.592 20.8736 116.926 21.006H119.32L119.14 22.039V22.039ZM115.483 28.631C115.253 28.631 115.051 28.615 114.876 28.582C114.778 28.637 114.682 28.702 114.589 28.779C114.496 28.855 114.411 28.949 114.335 29.058C114.259 29.167 114.195 29.295 114.146 29.443C114.097 29.591 114.073 29.763 114.073 29.96C114.073 30.801 114.537 31.222 115.467 31.222C116.265 31.222 116.855 31.067 117.237 30.755C117.62 30.443 117.812 30.085 117.812 29.681C117.812 29.298 117.692 29.028 117.451 28.869C117.211 28.711 116.888 28.631 116.483 28.631H115.483ZM117.238 23.449C117.238 22.881 117.104 22.476 116.836 22.236C116.579 21.9997 116.242 21.8706 115.893 21.875C115.51 21.875 115.183 21.995 114.909 22.235C114.636 22.476 114.499 22.881 114.499 23.449C114.499 24.018 114.636 24.422 114.909 24.663C115.182 24.903 115.499 25.023 115.86 25.023C116.243 25.023 116.568 24.903 116.836 24.663C117.104 24.423 117.238 24.018 117.238 23.449V23.449ZM60.858 45.414H59.645V44.528H59.612C59.4503 44.7865 59.2351 45.0074 58.981 45.176C58.811 45.291 58.607 45.392 58.366 45.479C58.126 45.567 57.858 45.611 57.563 45.611C57.213 45.611 56.899 45.559 56.62 45.455C56.3429 45.3526 56.097 45.1804 55.906 44.955C55.71 44.725 55.559 44.427 55.456 44.061C55.352 43.695 55.3 43.244 55.3 42.708V37.542H56.628V42.61C56.628 43.266 56.735 43.733 56.948 44.012C57.161 44.29 57.492 44.43 57.94 44.43C58.323 44.43 58.645 44.334 58.907 44.143C59.17 43.952 59.377 43.763 59.531 43.577V37.542H60.859V45.414H60.858ZM67.188 45.414V40.347C67.188 39.68 67.077 39.201 66.853 38.912C66.628 38.622 66.287 38.477 65.828 38.477C65.434 38.477 65.106 38.576 64.844 38.772C64.581 38.969 64.374 39.16 64.221 39.346V45.414H62.892V37.542H64.106V38.428H64.139C64.3012 38.1668 64.5199 37.9454 64.779 37.78C64.974 37.6554 65.1827 37.5538 65.401 37.477C65.641 37.389 65.915 37.346 66.221 37.346C66.571 37.346 66.888 37.398 67.172 37.501C67.457 37.605 67.697 37.772 67.894 38.001C68.091 38.231 68.244 38.529 68.353 38.895C68.463 39.262 68.517 39.713 68.517 40.248V45.414H67.189H67.188ZM70.14 41.593C70.14 40.795 70.244 40.128 70.452 39.593C70.66 39.057 70.928 38.625 71.256 38.297C71.584 37.969 71.956 37.737 72.371 37.6C72.7727 37.4656 73.1934 37.3964 73.617 37.395C73.868 37.395 74.087 37.414 74.273 37.452C74.459 37.49 74.612 37.537 74.733 37.592V33.82L76.06 33.672V45.414H74.847V44.577H74.814C74.6809 44.8192 74.4962 45.0291 74.273 45.192C74.0975 45.3187 73.904 45.4185 73.699 45.488C73.469 45.57 73.202 45.611 72.895 45.611C72.524 45.611 72.171 45.537 71.838 45.389C71.491 45.231 71.1892 44.9886 70.96 44.684C70.709 44.362 70.51 43.946 70.362 43.438C70.214 42.929 70.14 42.314 70.14 41.593V41.593ZM73.256 44.43C73.4964 44.4348 73.7352 44.3891 73.9569 44.2959C74.1785 44.2028 74.3782 44.0641 74.543 43.889C74.626 43.801 74.688 43.725 74.733 43.659V38.805C74.6015 38.7232 74.4609 38.6571 74.314 38.608C74.1202 38.5482 73.9178 38.5205 73.715 38.526C73.409 38.526 73.122 38.578 72.855 38.682C72.587 38.786 72.355 38.958 72.158 39.199C71.961 39.439 71.805 39.751 71.69 40.133C71.575 40.516 71.518 40.986 71.518 41.543C71.518 42.09 71.564 42.547 71.658 42.913C71.75 43.279 71.878 43.574 72.043 43.798C72.207 44.023 72.393 44.184 72.6 44.282C72.808 44.381 73.027 44.43 73.256 44.43V44.43ZM81.849 45.414V34.1H87.409L87.309 35.231H83.276V39.413H86.998V40.544H83.276V45.414H81.849V45.414ZM88.409 41.478C88.409 40.757 88.493 40.133 88.663 39.608C88.833 39.084 89.062 38.655 89.352 38.321C89.642 37.988 89.975 37.742 90.352 37.583C90.7337 37.4239 91.1435 37.3433 91.557 37.346C91.994 37.346 92.399 37.425 92.771 37.583C93.142 37.742 93.465 37.988 93.738 38.321C94.011 38.655 94.228 39.084 94.386 39.609C94.545 40.133 94.624 40.757 94.624 41.479C94.624 42.211 94.542 42.839 94.378 43.364C94.214 43.889 93.987 44.318 93.698 44.651C93.408 44.985 93.071 45.228 92.688 45.381C92.306 45.534 91.902 45.611 91.475 45.611C91.038 45.611 90.633 45.534 90.262 45.381C89.8832 45.2228 89.5503 44.9717 89.294 44.651C89.021 44.318 88.805 43.891 88.646 43.372C88.488 42.852 88.409 42.222 88.409 41.478V41.478ZM93.246 41.478C93.246 40.428 93.093 39.666 92.787 39.191C92.481 38.715 92.055 38.477 91.508 38.477C90.961 38.477 90.538 38.715 90.238 39.191C89.936 39.666 89.786 40.429 89.786 41.478C89.786 42.528 89.939 43.282 90.246 43.741C90.551 44.201 90.978 44.43 91.524 44.43C92.071 44.43 92.494 44.2 92.795 43.741C93.095 43.282 93.246 42.528 93.246 41.478ZM99.756 38.707C99.6886 38.6712 99.6171 38.6437 99.543 38.625C99.3987 38.5878 99.25 38.5709 99.101 38.575C98.685 38.575 98.36 38.688 98.125 38.912C97.905 39.1142 97.734 39.3638 97.625 39.642V45.414H96.296V37.542H97.51V38.608H97.543C97.597 38.455 97.668 38.305 97.756 38.158C97.843 38.01 97.953 37.878 98.084 37.764C98.215 37.649 98.371 37.559 98.551 37.494C98.7596 37.4234 98.9788 37.3895 99.199 37.394C99.385 37.394 99.535 37.411 99.65 37.444C99.765 37.477 99.855 37.504 99.92 37.526L99.757 38.706L99.756 38.707ZM104.397 39.133C104.252 38.9845 104.092 38.8499 103.922 38.731C103.692 38.561 103.392 38.477 103.02 38.477C102.67 38.477 102.402 38.559 102.216 38.723C102.129 38.7945 102.059 38.8846 102.01 38.9867C101.962 39.0887 101.938 39.2002 101.938 39.313C101.938 39.609 102.022 39.852 102.192 40.043C102.362 40.235 102.621 40.439 102.971 40.658L103.463 40.953C103.998 41.27 104.419 41.612 104.725 41.978C105.031 42.344 105.185 42.818 105.185 43.397C105.185 44.02 104.969 44.545 104.537 44.971C104.105 45.397 103.485 45.611 102.676 45.611C102.358 45.611 102.08 45.578 101.839 45.512C101.622 45.4549 101.411 45.3779 101.208 45.282C101.046 45.2065 100.894 45.1104 100.757 44.996C100.637 44.892 100.538 44.796 100.462 44.709L101.102 43.659C101.167 43.725 101.246 43.801 101.339 43.889C101.563 44.0954 101.829 44.2519 102.118 44.348C102.282 44.403 102.473 44.43 102.692 44.43C103.085 44.43 103.386 44.342 103.594 44.167C103.691 44.0912 103.77 43.9941 103.824 43.8831C103.878 43.7722 103.906 43.6504 103.905 43.527C103.909 43.363 103.884 43.1996 103.832 43.044C103.783 42.9077 103.707 42.7823 103.61 42.675C103.502 42.5578 103.382 42.4534 103.25 42.364C103.088 42.2521 102.924 42.1428 102.758 42.036L102.266 41.724C101.774 41.407 101.388 41.074 101.11 40.724C100.83 40.374 100.691 39.926 100.691 39.379C100.691 39.084 100.749 38.813 100.864 38.567C100.978 38.3219 101.143 38.1038 101.347 37.927C101.555 37.747 101.798 37.605 102.077 37.501C102.363 37.3961 102.666 37.3436 102.971 37.346C103.236 37.3411 103.501 37.3713 103.758 37.436C104.113 37.5282 104.442 37.7022 104.718 37.944C104.821 38.037 104.906 38.116 104.971 38.182L104.397 39.133V39.133ZM111.121 39.067C111.07 39.0171 111.018 38.9681 110.965 38.92C110.882 38.8454 110.791 38.7794 110.695 38.723C110.571 38.6508 110.438 38.5931 110.301 38.551C110.131 38.4993 109.954 38.4743 109.776 38.477C109.492 38.477 109.226 38.529 108.981 38.633C108.735 38.737 108.521 38.903 108.341 39.133C108.161 39.363 108.019 39.661 107.915 40.027C107.811 40.393 107.759 40.839 107.759 41.363C107.759 41.943 107.806 42.429 107.899 42.823C107.991 43.216 108.119 43.531 108.284 43.766C108.448 44.001 108.647 44.17 108.883 44.274C109.117 44.378 109.377 44.43 109.661 44.43C110.066 44.43 110.375 44.359 110.588 44.217C110.801 44.075 110.951 43.96 111.038 43.872L111.58 44.791C111.506 44.8754 111.427 44.9546 111.342 45.028C111.219 45.1339 111.084 45.2249 110.94 45.299C110.75 45.396 110.549 45.4702 110.342 45.52C110.107 45.58 109.836 45.61 109.53 45.61C109.093 45.61 108.683 45.54 108.3 45.397C107.912 45.2511 107.568 45.0084 107.3 44.692C107.016 44.364 106.792 43.938 106.628 43.413C106.464 42.888 106.382 42.238 106.382 41.462C106.382 40.707 106.48 40.068 106.677 39.543C106.874 39.018 107.13 38.595 107.447 38.273C107.765 37.95 108.117 37.715 108.505 37.567C108.879 37.4221 109.277 37.3472 109.678 37.346C109.973 37.346 110.233 37.373 110.457 37.428C110.681 37.482 110.872 37.551 111.031 37.633C111.189 37.715 111.321 37.802 111.424 37.895C111.528 37.988 111.613 38.067 111.678 38.133L111.121 39.067V39.067ZM117.369 45.414V40.347C117.369 39.68 117.257 39.201 117.033 38.912C116.808 38.622 116.467 38.477 116.008 38.477C115.614 38.477 115.286 38.576 115.024 38.772C114.761 38.969 114.554 39.16 114.401 39.346V45.414H113.072V33.82L114.401 33.672V38.346H114.433C114.477 38.28 114.545 38.193 114.638 38.084C114.731 37.974 114.86 37.864 115.024 37.756C115.448 37.4788 115.945 37.3359 116.451 37.346C117.139 37.346 117.686 37.57 118.091 38.018C118.495 38.466 118.697 39.21 118.697 40.248V45.414H117.369V45.414ZM126.191 45.414H124.978V44.528H124.945C124.783 44.7865 124.568 45.0074 124.314 45.176C124.144 45.291 123.939 45.392 123.699 45.479C123.459 45.567 123.19 45.611 122.895 45.611C122.545 45.611 122.231 45.559 121.952 45.455C121.675 45.3525 121.43 45.1802 121.239 44.955C121.042 44.725 120.892 44.427 120.788 44.061C120.684 43.695 120.632 43.244 120.632 42.708V37.542H121.96V42.61C121.96 43.266 122.067 43.733 122.28 44.012C122.493 44.29 122.824 44.43 123.272 44.43C123.655 44.43 123.977 44.334 124.24 44.143C124.502 43.952 124.71 43.763 124.863 43.577V37.542H126.191V45.414V45.414ZM132.521 45.414V40.347C132.521 39.68 132.409 39.201 132.185 38.912C131.961 38.622 131.619 38.477 131.16 38.477C130.767 38.477 130.439 38.576 130.176 38.772C129.914 38.969 129.706 39.16 129.553 39.346V45.414H128.225V37.542H129.438V38.428H129.471C129.633 38.1668 129.852 37.9454 130.111 37.78C130.306 37.6554 130.515 37.5537 130.734 37.477C130.974 37.389 131.248 37.346 131.554 37.346C131.904 37.346 132.22 37.398 132.504 37.501C132.789 37.605 133.03 37.772 133.226 38.001C133.423 38.231 133.576 38.529 133.686 38.895C133.795 39.262 133.849 39.713 133.849 40.248V45.414H132.521V45.414ZM141.475 38.576H140.491C140.742 38.991 140.868 39.461 140.868 39.986C140.868 40.401 140.8 40.776 140.663 41.109C140.536 41.4291 140.34 41.7176 140.089 41.954C139.843 42.184 139.553 42.358 139.22 42.478C138.887 42.598 138.529 42.658 138.146 42.658H137.933C137.862 42.6577 137.791 42.6523 137.72 42.642C137.571 42.7082 137.432 42.7969 137.31 42.905C137.241 42.9627 137.185 43.0354 137.148 43.1177C137.111 43.2001 137.093 43.2898 137.096 43.38C137.096 43.544 137.159 43.678 137.286 43.782C137.411 43.886 137.616 43.938 137.9 43.938H138.9C139.248 43.9354 139.594 43.974 139.933 44.053C140.25 44.129 140.527 44.253 140.762 44.422C140.997 44.592 141.18 44.807 141.311 45.069C141.442 45.332 141.508 45.649 141.508 46.021C141.508 46.447 141.418 46.835 141.238 47.185C141.057 47.535 140.803 47.835 140.475 48.087C140.115 48.3545 139.709 48.5544 139.277 48.677C138.766 48.8248 138.235 48.8965 137.703 48.89C136.861 48.89 136.222 48.707 135.785 48.341C135.347 47.975 135.129 47.447 135.129 46.758C135.129 46.463 135.181 46.209 135.284 45.996C135.388 45.783 135.511 45.596 135.654 45.438C135.795 45.28 135.94 45.154 136.088 45.061L136.44 44.84V44.807C136.102 44.556 135.932 44.189 135.932 43.708C135.932 43.501 135.973 43.32 136.055 43.168C136.137 43.014 136.23 42.888 136.334 42.79C136.438 42.692 136.542 42.612 136.646 42.552C136.722 42.5059 136.801 42.4648 136.883 42.429V42.396C136.477 42.2085 136.137 41.9028 135.908 41.519C135.662 41.12 135.538 40.609 135.538 39.986C135.538 39.549 135.61 39.163 135.752 38.83C135.881 38.5156 136.077 38.233 136.326 38.002C136.566 37.782 136.848 37.619 137.17 37.51C137.493 37.4 137.84 37.346 138.212 37.346C138.571 37.3434 138.928 37.4099 139.262 37.542H141.655L141.475 38.576V38.576ZM137.818 45.168C137.588 45.168 137.386 45.151 137.211 45.118C137.113 45.173 137.017 45.238 136.924 45.315C136.831 45.392 136.747 45.485 136.67 45.595C136.594 45.703 136.53 45.832 136.482 45.98C136.432 46.127 136.408 46.3 136.408 46.496C136.408 47.338 136.872 47.759 137.802 47.759C138.6 47.759 139.19 47.603 139.572 47.292C139.955 46.98 140.147 46.622 140.147 46.217C140.147 45.835 140.027 45.564 139.786 45.406C139.546 45.247 139.223 45.168 138.818 45.168H137.818V45.168ZM139.573 39.986C139.573 39.417 139.439 39.013 139.171 38.772C138.914 38.5361 138.577 38.4073 138.228 38.412C137.845 38.412 137.518 38.532 137.244 38.772C136.971 39.012 136.834 39.417 136.834 39.986C136.834 40.554 136.971 40.959 137.244 41.199C137.517 41.439 137.834 41.56 138.195 41.56C138.578 41.56 138.903 41.44 139.171 41.2C139.439 40.959 139.573 40.554 139.573 39.986V39.986ZM19.43 11.43C19.468 11.122 19.49 10.804 19.49 10.479C19.49 10.301 19.491 10.094 19.469 9.859C22.215 9.821 24.624 7.842 24.624 5.567C24.624 4.41 23.869 3.537 23.444 3.014C23.538 2.994 23.634 2.971 23.733 2.948C24.135 3.298 25.276 4.541 25.276 6.11C25.276 8.84 22.548 11.374 19.43 11.43ZM16.663 1.924C16.6157 1.62815 16.498 1.34798 16.32 1.107C16.33 0.828 16.444 0.562 16.892 0.781C16.65 1.029 16.837 1.469 16.837 1.469C16.837 1.469 17.333 1.239 17.23 0.911C17.966 1.087 17.436 2.075 16.663 1.924V1.924ZM16.025 3.325C15.922 2.9062 15.7262 2.51591 15.452 2.183C15.209 1.896 14.808 1.556 14.268 1.556C14.022 1.556 13.608 1.672 13.345 1.783C13.247 1.604 13.055 1.173 13.055 0.978C13.055 0.778 13.393 0.576 14.04 0.576C15.462 0.576 16.31 1.218 16.31 2.296C16.31 2.675 16.16 3.019 16.025 3.326V3.325ZM19.677 21.653C19.7941 21.6496 19.9106 21.6707 20.019 21.715C20.429 22.829 22.006 24.93 22.072 25.02L22.086 25.039L22.109 25.034C22.497 24.972 23.485 24.823 24.311 24.823H24.331C24.421 24.823 24.522 24.823 24.587 24.886C24.641 24.94 24.667 25.034 24.667 25.167C24.667 25.373 24.58 25.724 24.475 25.874C24.186 25.559 23.716 25.417 22.964 25.417C22.738 25.417 22.47 25.484 22.326 25.523L22.266 25.535L22.199 25.553L22.633 25.987C23.303 26.657 23.881 27.234 23.881 27.619C23.881 27.85 23.655 28.152 23.449 28.286C23.403 27.582 22.692 26.639 21.999 26.111L21.939 26.067L21.929 26.315C21.919 26.483 21.904 26.735 21.904 27.005C21.904 28.346 21.768 28.55 21.304 28.55C21.2192 28.5475 21.1353 28.5324 21.055 28.505C21.317 28.181 21.42 27.754 21.42 27.005L21.416 26.658L21.412 26.38C21.412 26.073 21.444 25.845 21.469 25.662L21.482 25.559L21.409 25.549C21.1011 25.5011 20.7905 25.4724 20.479 25.463C19.816 25.463 19.367 25.524 19.042 25.83C18.827 25.656 18.606 25.357 18.606 25.169C18.606 24.889 18.78 24.867 19.009 24.867C19.124 24.867 19.232 24.883 19.381 24.901C19.666 24.944 20.095 25.007 20.978 25.007H21.033L21.015 24.954C20.792 24.313 20.177 23.381 19.192 22.184C19.28 21.863 19.367 21.654 19.677 21.654V21.653ZM11.169 24.954L11.151 25.007H11.206C12.088 25.007 12.518 24.944 12.803 24.901C12.953 24.883 13.06 24.867 13.175 24.867C13.403 24.867 13.578 24.889 13.578 25.169C13.578 25.357 13.358 25.656 13.144 25.83C12.817 25.524 12.368 25.463 11.706 25.463C11.396 25.463 10.991 25.519 10.775 25.549L10.74 25.553L10.702 25.559L10.714 25.662C10.74 25.845 10.772 26.072 10.772 26.38L10.768 26.658L10.764 27.004C10.764 27.754 10.867 28.181 11.13 28.504C11.0497 28.5315 10.9658 28.547 10.881 28.55C10.415 28.55 10.281 28.346 10.281 27.006C10.281 26.736 10.266 26.483 10.257 26.316L10.243 26.066L10.185 26.111C9.49301 26.639 8.78001 27.581 8.73701 28.286C8.52901 28.152 8.30301 27.85 8.30301 27.619C8.30301 27.234 8.88101 26.657 9.55101 25.987L9.93601 25.603L9.98601 25.553L9.85901 25.523C9.6507 25.4621 9.43582 25.4265 9.21901 25.417C8.46901 25.417 7.99901 25.559 7.70901 25.874C7.60401 25.724 7.51701 25.373 7.51701 25.167C7.51701 25.034 7.54301 24.94 7.59701 24.887C7.66201 24.823 7.76401 24.823 7.85301 24.823H7.87301C8.70001 24.823 9.68901 24.972 10.075 25.033L10.098 25.039L10.112 25.019C10.18 24.93 11.756 22.829 12.167 21.715C12.2747 21.6705 12.3906 21.6494 12.507 21.653C12.817 21.653 12.904 21.863 12.994 22.183C12.007 23.381 11.392 24.313 11.169 24.953V24.954ZM6.90901 6.11C6.90901 4.54 8.05101 3.298 8.45301 2.948C8.54901 2.971 8.64601 2.993 8.74301 3.014C8.31501 3.536 7.56001 4.41 7.56001 5.567C7.56001 7.866 10.016 9.861 12.797 9.861C12.7783 10.0665 12.769 10.2727 12.769 10.479C12.769 10.818 12.789 11.133 12.821 11.431C9.67701 11.411 6.90801 8.859 6.90801 6.111L6.90901 6.11ZM28 10.95C29.412 13.181 30.515 13.144 32.183 13.144C30.803 12.087 29.891 10.733 29.456 10.041L26.879 5.918C26.6252 4.62594 25.9601 3.45072 24.983 2.568C25.315 2.442 25.59 2.31 25.756 2.185C24.073 2.185 22.406 1.33 21.488 1.33C20.898 1.33 20.519 1.683 20.519 2.149C20.556 2.669 21.091 3.196 22.079 3.196C22.302 3.196 22.589 3.167 22.903 3.115C23.438 3.86 23.869 4.535 23.869 5.496C23.869 7.301 21.711 8.708 19.532 8.708C19.408 8.708 19.292 8.703 19.169 8.694C18.972 8.247 18.314 7.496 18.314 6.641C18.314 5.207 19.25 4.035 19.25 2.615C19.25 1.731 18.82 1.185 18.655 0.957C18.922 0.709 19.215 0.404 19.283 0.195C19.127 0.262 18.943 0.27 18.673 0.27C17.63 0.271 16.779 0 15.949 0C15.475 0 15.349 0.146 15.349 0.285C15.349 0.336 15.355 0.389 15.369 0.413C15.1948 0.345092 15.0142 0.29484 14.83 0.263C14.5695 0.214848 14.305 0.19141 14.04 0.193C13.032 0.193 12.673 0.616 12.673 0.978C12.673 1.284 12.915 1.844 13.189 2.271C13.582 2.073 14.054 1.939 14.269 1.939C14.805 1.939 15.281 2.449 15.533 3.052C15.173 3.096 15.104 3.112 14.741 3.112C13.758 3.112 13.09 2.76 12.951 2.76C12.939 2.76 12.913 2.767 12.913 2.79C12.913 2.927 13.192 3.29 13.74 3.49C14.464 3.755 15.547 3.865 15.727 3.896C15.727 3.927 15.544 4.269 15.339 4.336C15.2972 4.34969 15.2524 4.35073 15.21 4.339C14.455 4.191 14.244 4.127 13.287 3.763C13.257 3.753 13.24 3.77 13.24 3.801C13.24 4.18 14.221 5.016 15.1 5.337C14.366 6.274 13.45 7.233 13.017 8.695C12.8959 8.7038 12.7745 8.70847 12.653 8.709C10.474 8.709 8.31601 7.302 8.31601 5.497C8.31601 4.535 8.74701 3.861 9.28201 3.116C9.59601 3.168 9.88201 3.197 10.106 3.197C11.094 3.197 11.629 2.669 11.668 2.15C11.668 1.684 11.288 1.331 10.698 1.331C9.78001 1.331 8.11401 2.186 6.42801 2.186C6.59501 2.311 6.87101 2.443 7.20101 2.569C6.22466 3.45214 5.55995 4.62722 5.30601 5.919L2.73001 10.042C2.29501 10.734 1.38001 12.088 0.00100708 13.145C1.66801 13.145 2.77401 13.182 4.18501 10.951L5.50601 8.837C5.60401 9.112 5.72401 9.379 5.86601 9.641L3.23801 13.845C2.80101 14.542 1.89401 15.885 0.509007 16.949C2.17701 16.949 3.28201 16.987 4.69301 14.757L6.95501 11.136C7.12501 11.316 7.30201 11.493 7.48901 11.661L4.29801 16.771C3.86001 17.469 2.95801 18.809 1.57101 19.871C3.23801 19.871 4.34301 19.911 5.75301 17.681L8.86501 12.699C9.07001 12.829 9.27901 12.954 9.49701 13.072L5.69701 19.151C5.26001 19.849 4.35801 21.185 2.97101 22.251C4.63801 22.251 5.74301 22.29 7.15401 20.061L11.065 13.8C11.297 13.888 11.531 13.973 11.769 14.05L7.35001 21.122C6.91901 21.811 5.99701 23.171 4.62401 24.222C6.29001 24.222 7.39701 24.261 8.80701 22.032L13.517 14.493C13.565 14.502 13.612 14.508 13.659 14.518C13.787 14.926 13.877 15.306 13.877 15.685C13.877 18.055 12.322 20.146 10.457 21.761C10.577 21.813 10.784 21.831 10.976 21.831C11.362 21.831 11.61 21.811 11.785 21.781C11.352 22.763 10.423 24.032 9.95501 24.688C9.34501 24.578 8.45501 24.492 7.87401 24.492C7.26401 24.492 7.19601 24.848 7.19601 25.166C7.19601 25.719 7.45501 26.158 7.75601 26.404C7.86801 26.121 8.09601 25.744 9.22001 25.744C9.24201 25.744 9.28001 25.746 9.33301 25.75C9.00501 26.116 7.97601 26.948 7.97601 27.618C7.97601 28.061 8.46201 28.728 9.10301 28.728C9.06601 28.584 9.07001 28.453 9.07001 28.354C9.07001 27.811 9.55001 27.175 9.95701 26.732C9.94501 26.864 9.95201 26.85 9.95201 27.005C9.95201 28.287 10.068 28.877 10.882 28.877C11.282 28.877 11.557 28.658 11.652 28.592C11.123 28.106 11.096 27.722 11.096 27.003L11.101 26.38C11.106 26.1996 11.0969 26.019 11.074 25.84C11.364 25.8 11.483 25.8 11.707 25.8C11.707 25.8 12.864 25.708 13.143 26.31C13.458 26.022 13.913 25.615 13.913 25.168C13.913 24.871 13.773 24.536 13.176 24.536C12.95 24.536 12.241 24.674 11.646 24.674C11.806 24.32 12.516 23.281 13.132 22.527C13.226 22.819 13.371 23.135 13.693 23.394C13.739 22.909 14.023 21.375 14.781 20.478C14.869 21.084 14.987 21.706 14.987 23.016C14.987 26.206 14.221 28.56 12.594 29.01C12.806 29.378 13.254 29.71 13.718 29.71C14.313 29.71 14.638 29.036 14.968 28.4C15.14 28.869 15.616 30.018 16.092 30.018C16.569 30.018 17.046 28.869 17.218 28.4C17.548 29.036 17.873 29.71 18.468 29.71C18.933 29.71 19.38 29.378 19.593 29.01C17.965 28.56 17.198 26.205 17.198 23.016C17.198 21.706 17.316 21.084 17.404 20.478C18.164 21.375 18.449 22.909 18.492 23.394C18.815 23.135 18.962 22.819 19.054 22.527C19.668 23.281 20.38 24.32 20.539 24.674C19.945 24.674 19.234 24.536 19.009 24.536C18.414 24.536 18.274 24.871 18.274 25.168C18.274 25.615 18.73 26.022 19.044 26.31C19.321 25.708 20.48 25.8 20.48 25.8C20.703 25.8 20.822 25.8 21.114 25.84C21.0901 26.0189 21.0807 26.1995 21.086 26.38L21.091 27.003C21.091 27.723 21.063 28.106 20.534 28.592C20.629 28.658 20.904 28.877 21.304 28.877C22.119 28.877 22.236 28.287 22.236 27.005C22.236 26.85 22.24 26.864 22.229 26.732C22.635 27.175 23.116 27.811 23.116 28.354C23.116 28.453 23.122 28.584 23.082 28.727C23.724 28.727 24.212 28.061 24.212 27.617C24.212 26.948 23.182 26.116 22.852 25.75C22.905 25.746 22.944 25.744 22.965 25.744C24.091 25.744 24.318 26.121 24.431 26.404C24.6095 26.2514 24.7522 26.0614 24.849 25.8474C24.9457 25.6334 24.9942 25.4008 24.991 25.166C24.991 24.848 24.921 24.492 24.312 24.492C23.731 24.492 22.843 24.578 22.232 24.688C21.762 24.032 20.836 22.763 20.402 21.78C20.577 21.81 20.826 21.831 21.21 21.831C21.403 21.831 21.61 21.813 21.73 21.761C19.864 20.146 18.31 18.054 18.31 15.685C18.31 15.306 18.4 14.926 18.527 14.518C18.573 14.508 18.622 14.502 18.669 14.493L23.379 22.031C24.789 24.261 25.896 24.222 27.562 24.222C26.189 23.171 25.267 21.811 24.836 21.122L20.416 14.048C20.656 13.972 20.891 13.887 21.122 13.798L25.032 20.059C26.442 22.289 27.548 22.25 29.216 22.25C27.828 21.184 26.926 19.848 26.488 19.15L22.69 13.071C22.905 12.953 23.116 12.827 23.32 12.698L26.433 17.679C27.844 19.91 28.948 19.87 30.616 19.87C29.228 18.808 28.328 17.468 27.888 16.77L24.697 11.66C24.884 11.492 25.063 11.315 25.23 11.135L27.494 14.756C28.904 16.986 30.009 16.948 31.677 16.948C30.29 15.884 29.387 14.541 28.948 13.844L26.322 9.64C26.462 9.378 26.582 9.11 26.682 8.836L28 10.95ZM45.375 28.878H40.552V1.318H45.375V28.878Z" fill="black"/>
    <path d="M45.375 56.44H40.552V28.877H45.375V56.44Z" fill="#FF0000"/>
    <path d="M45.375 84.0004H40.552V56.4404H45.375V84.0004Z" fill="#FFCC00"/>
</svg>
